<?xml version="1.0" encoding="UTF-8"?>
<!DOCTYPE svg PUBLIC "-//W3C//DTD SVG 1.1//EN" "http://www.w3.org/Graphics/SVG/1.1/DTD/svg11.dtd">
<!-- Creator: Corel DESIGNER -->
<svg xmlns="http://www.w3.org/2000/svg" xml:space="preserve" width="750px" height="1000px" version="1.1" style="shape-rendering:geometricPrecision; text-rendering:geometricPrecision; image-rendering:optimizeQuality; fill-rule:evenodd; clip-rule:evenodd"
viewBox="0 0 750000 1000000"
 xmlns:xlink="http://www.w3.org/1999/xlink"
 xmlns:xodm="http://www.corel.com/coreldraw/odm/2003">
 <defs>
  <style type="text/css">
   <![CDATA[
    .str0 {stroke:#FEFEFE;stroke-width:2810;stroke-miterlimit:22.9256}
    .str1 {stroke:#FEFEFE;stroke-width:2810;stroke-linejoin:bevel;stroke-miterlimit:22.9256}
    .fil1 {fill:none}
    .fil0 {fill:black}
   ]]>
  </style>
 </defs>
 <g id="Слой_x0020_1">
  <metadata id="CorelCorpID_0Corel-Layer"/>
  <g id="_2999613052368">
   <g id="_2595615092592">
    <g>
     <polygon class="fil0" points="445430,110230 444260,81350 444260,81350 434550,54700 434550,54700 417720,33600 417720,33600 395550,20490 395550,20490 370930,17080 370930,17080 346840,23790 346840,23790 326160,39780 326160,39780 311460,63020 311460,63020 304420,90730 304420,90730 304640,110230 304640,110230 312200,138470 312200,138470 327870,161710 327870,161710 348440,176630 348440,176630 372100,182600 372100,182600 375090,182700 375090,182700 398640,177910 398640,177910 418030,165650 418030,165650 434130,145830 434130,145830 443510,121850 443510,121850 "/>
     <g>
     </g>
     <polygon id="_1" class="fil1 str0" points="445430,110230 444260,81350 444260,81350 434550,54700 434550,54700 417720,33600 417720,33600 395550,20490 395550,20490 370930,17080 370930,17080 346840,23790 346840,23790 326160,39780 326160,39780 311460,63020 311460,63020 304420,90730 304420,90730 304640,110230 304640,110230 312200,138470 312200,138470 327870,161710 327870,161710 348440,176630 348440,176630 372100,182600 372100,182600 375090,182700 375090,182700 398640,177910 398640,177910 418030,165650 418030,165650 434130,145830 434130,145830 443510,121850 443510,121850 "/>
    </g>
    <g>
     <polygon class="fil0" points="304640,110230 279270,120990 279270,120990 262540,137940 262540,137940 242710,157020 242710,157020 220650,165540 220650,165540 220650,169700 220650,169700 257100,168950 257100,168950 293230,176840 293230,176840 337040,190160 337040,190160 375090,195390 375090,195390 410900,190700 410900,190700 462270,175350 462270,175350 502550,168210 502550,168210 529520,169700 529520,169700 529520,165540 529520,165540 504050,154780 504050,154780 487420,137830 487420,137830 467600,118760 467600,118760 445430,110230 445430,110230 437650,138790 437650,138790 423370,160540 423370,160540 402580,176200 402580,176200 379140,182490 379140,182490 375090,182700 375090,182700 351530,178010 351530,178010 331070,164800 331070,164800 315300,144660 315300,144660 306240,120460 306240,120460 "/>
     <g>
     </g>
     <polygon id="_1_0" class="fil1 str0" points="304640,110230 279270,120990 279270,120990 262540,137940 262540,137940 242710,157020 242710,157020 220650,165540 220650,165540 220650,169700 220650,169700 257100,168950 257100,168950 293230,176840 293230,176840 337040,190160 337040,190160 375090,195390 375090,195390 410900,190700 410900,190700 462270,175350 462270,175350 502550,168210 502550,168210 529520,169700 529520,169700 529520,165540 529520,165540 504050,154780 504050,154780 487420,137830 487420,137830 467600,118760 467600,118760 445430,110230 445430,110230 437650,138790 437650,138790 423370,160540 423370,160540 402580,176200 402580,176200 379140,182490 379140,182490 375090,182700 375090,182700 351530,178010 351530,178010 331070,164800 331070,164800 315300,144660 315300,144660 306240,120460 306240,120460 "/>
    </g>
    <g>
     <polygon class="fil0" points="220650,169700 186440,176410 186440,176410 155210,192080 155210,192080 129420,215530 129420,215530 110770,244950 110770,244950 100750,278300 100750,278300 100540,279800 100540,279800 99900,288320 99900,288320 99900,341080 99900,341080 101390,339590 101390,339590 102880,341080 102880,341080 168000,341080 168000,341080 169390,339590 169390,339590 170880,341080 170880,341080 170880,283100 170880,283100 171730,276280 171730,276280 181320,256450 181320,256450 198160,242280 198160,242280 219480,236530 219480,236530 236640,238450 236640,238450 246120,214890 246120,214890 263500,196450 263500,196450 286300,185580 286300,185580 311670,183770 311670,183770 319030,185050 319030,185050 286200,174920 286200,174920 253480,168640 253480,168640 "/>
     <g>
     </g>
     <polygon id="_1_1" class="fil1 str0" points="220650,169700 186440,176410 186440,176410 155210,192080 155210,192080 129420,215530 129420,215530 110770,244950 110770,244950 100750,278300 100750,278300 100540,279800 100540,279800 99900,288320 99900,288320 99900,341080 99900,341080 101390,339590 101390,339590 102880,341080 102880,341080 168000,341080 168000,341080 169390,339590 169390,339590 170880,341080 170880,341080 170880,283100 170880,283100 171730,276280 171730,276280 181320,256450 181320,256450 198160,242280 198160,242280 219480,236530 219480,236530 236640,238450 236640,238450 246120,214890 246120,214890 263500,196450 263500,196450 286300,185580 286300,185580 311670,183770 311670,183770 319030,185050 319030,185050 286200,174920 286200,174920 253480,168640 253480,168640 "/>
    </g>
    <g>
     <polygon class="fil0" points="649530,279800 639830,246330 639830,246330 621600,216600 621600,216600 596030,192930 596030,192930 565010,176950 565010,176950 530910,169810 530910,169810 529520,169700 529520,169700 496590,168640 496590,168640 463870,174920 463870,174920 431150,185050 431150,185050 456400,184090 456400,184090 480390,192400 480390,192400 499680,208820 499680,208820 511610,231200 511610,231200 513430,238450 513430,238450 535380,236950 535380,236950 556060,244730 556060,244730 571620,260290 571620,260290 578330,276280 578330,276280 579180,283100 579180,283100 579180,341080 579180,341080 580680,339590 580680,339590 582170,341080 582170,341080 647180,341080 647180,341080 648670,339590 648670,339590 650170,341080 650170,341080 650170,288320 650170,288320 "/>
     <g>
     </g>
     <polygon id="_1_2" class="fil1 str0" points="649530,279800 639830,246330 639830,246330 621600,216600 621600,216600 596030,192930 596030,192930 565010,176950 565010,176950 530910,169810 530910,169810 529520,169700 529520,169700 496590,168640 496590,168640 463870,174920 463870,174920 431150,185050 431150,185050 456400,184090 456400,184090 480390,192400 480390,192400 499680,208820 499680,208820 511610,231200 511610,231200 513430,238450 513430,238450 535380,236950 535380,236950 556060,244730 556060,244730 571620,260290 571620,260290 578330,276280 578330,276280 579180,283100 579180,283100 579180,341080 579180,341080 580680,339590 580680,339590 582170,341080 582170,341080 647180,341080 647180,341080 648670,339590 648670,339590 650170,341080 650170,341080 650170,288320 650170,288320 "/>
    </g>
    <g>
     <polygon class="fil0" points="650170,376570 579180,376570 579180,376570 579180,846910 579180,846910 579180,849890 579180,849890 650170,849890 650170,849890 "/>
     <g>
     </g>
     <polygon id="_1_3" class="fil1 str0" points="650170,376570 579180,376570 579180,376570 579180,846910 579180,846910 579180,849890 579180,849890 650170,849890 650170,849890 "/>
    </g>
    <g>
     <polygon class="fil0" points="579180,376570 667970,376570 667970,376570 667970,370600 667970,370600 662000,370600 662000,370600 662000,352910 662000,352910 648670,339590 648670,339590 647180,341080 647180,341080 582170,341080 582170,341080 580680,339590 580680,339590 567360,352910 567360,352910 567360,370600 567360,370600 561490,370600 561490,370600 561490,376570 561490,376570 "/>
     <g>
     </g>
     <polygon id="_1_4" class="fil1 str0" points="579180,376570 667970,376570 667970,376570 667970,370600 667970,370600 662000,370600 662000,370600 662000,352910 662000,352910 648670,339590 648670,339590 647180,341080 647180,341080 582170,341080 582170,341080 580680,339590 580680,339590 567360,352910 567360,352910 567360,370600 567360,370600 561490,370600 561490,370600 561490,376570 561490,376570 "/>
    </g>
    <g>
     <polygon class="fil0" points="168000,341080 102880,341080 102880,341080 101390,339590 101390,339590 88060,352910 88060,352910 88060,370600 88060,370600 82100,370600 82100,370600 82100,376570 82100,376570 188570,376570 188570,376570 188570,370600 188570,370600 182710,370600 182710,370600 182710,352910 182710,352910 169390,339590 169390,339590 "/>
     <g>
     </g>
     <polygon id="_1_5" class="fil1 str0" points="168000,341080 102880,341080 102880,341080 101390,339590 101390,339590 88060,352910 88060,352910 88060,370600 88060,370600 82100,370600 82100,370600 82100,376570 82100,376570 188570,376570 188570,376570 188570,370600 188570,370600 182710,370600 182710,370600 182710,352910 182710,352910 169390,339590 169390,339590 "/>
    </g>
    <g>
     <polygon class="fil0" points="99900,376570 99900,849890 99900,849890 170880,849890 170880,849890 170880,376570 170880,376570 "/>
     <g>
     </g>
     <polygon id="_1_6" class="fil1 str0" points="99900,376570 99900,849890 99900,849890 170880,849890 170880,849890 170880,376570 170880,376570 "/>
    </g>
    <g>
     <polygon class="fil0" points="552540,453520 547850,412810 547850,412810 533890,374330 533890,374330 511610,340020 511610,340020 481980,311770 481980,311770 446710,291090 446710,291090 407590,278940 407590,278940 366770,276170 366770,276170 326380,282780 326380,282780 288540,298450 288540,298450 255400,322430 255400,322430 228540,353230 228540,353230 209460,389470 209460,389470 199230,429120 199230,429120 197520,453520 197520,453520 197520,867590 197520,867590 552540,867590 552540,867590 "/>
     <g>
     </g>
     <polygon id="_1_7" class="fil1 str0" points="552540,453520 547850,412810 547850,412810 533890,374330 533890,374330 511610,340020 511610,340020 481980,311770 481980,311770 446710,291090 446710,291090 407590,278940 407590,278940 366770,276170 366770,276170 326380,282780 326380,282780 288540,298450 288540,298450 255400,322430 255400,322430 228540,353230 228540,353230 209460,389470 209460,389470 199230,429120 199230,429120 197520,453520 197520,453520 197520,867590 197520,867590 552540,867590 552540,867590 "/>
    </g>
    <g>
     <polygon class="fil0" points="552540,867590 55560,867590 55560,867590 49590,873550 49590,873550 49590,985990 49590,985990 55560,985990 55560,985990 694500,985990 694500,985990 700470,985990 700470,985990 700470,873550 700470,873550 694500,867590 694500,867590 "/>
     <g>
     </g>
     <polygon id="_1_8" class="fil1 str0" points="552540,867590 55560,867590 55560,867590 49590,873550 49590,873550 49590,985990 49590,985990 55560,985990 55560,985990 694500,985990 694500,985990 700470,985990 700470,985990 700470,873550 700470,873550 694500,867590 694500,867590 "/>
    </g>
    <g>
     <polygon class="fil0" points="170880,849890 99900,849890 99900,849890 97020,849890 97020,849890 88060,858740 88060,858740 88060,867590 88060,867590 182710,867590 182710,867590 182710,858740 182710,858740 173860,849890 173860,849890 "/>
     <g>
     </g>
     <polygon id="_1_9" class="fil1 str0" points="170880,849890 99900,849890 99900,849890 97020,849890 97020,849890 88060,858740 88060,858740 88060,867590 88060,867590 182710,867590 182710,867590 182710,858740 182710,858740 173860,849890 173860,849890 "/>
    </g>
    <g>
     <polygon class="fil0" points="650170,849890 576200,849890 576200,849890 567360,858740 567360,858740 567360,867590 567360,867590 662000,867590 662000,867590 662000,858740 662000,858740 653150,849890 653150,849890 "/>
     <g>
     </g>
     <polygon id="_1_10" class="fil1 str0" points="650170,849890 576200,849890 576200,849890 567360,858740 567360,858740 567360,867590 567360,867590 662000,867590 662000,867590 662000,858740 662000,858740 653150,849890 653150,849890 "/>
    </g>
    <line class="fil1 str1" x1="55560" y1="985990" x2="694500" y2= "985990" />
    <line class="fil1 str1" x1="55560" y1="985990" x2="49590" y2= "985990" />
    <line class="fil1 str1" x1="55560" y1="867590" x2="49590" y2= "873550" />
    <line class="fil1 str1" x1="700470" y1="873550" x2="694500" y2= "867590" />
    <line class="fil1 str1" x1="49590" y1="985990" x2="49590" y2= "873550" />
    <line class="fil1 str1" x1="700470" y1="985990" x2="694500" y2= "985990" />
    <line class="fil1 str1" x1="55560" y1="867590" x2="694500" y2= "867590" />
    <line class="fil1 str1" x1="700470" y1="985990" x2="700470" y2= "873550" />
    <line class="fil1 str1" x1="197520" y1="453520" x2="197520" y2= "867590" />
    <line class="fil1 str1" x1="552540" y1="867590" x2="552540" y2= "453520" />
    <path class="fil1 str1" d="M552540 453520c0,-63410 -33780,-122030 -88780,-153790 -54890,-31650 -122570,-31650 -177460,0 -54880,31760 -88780,90380 -88780,153790"/>
    <line class="fil1 str1" x1="567360" y1="858740" x2="567360" y2= "867590" />
    <line class="fil1 str1" x1="182710" y1="867590" x2="182710" y2= "858740" />
    <line class="fil1 str1" x1="88060" y1="858740" x2="88060" y2= "867590" />
    <line class="fil1 str1" x1="662000" y1="867590" x2="662000" y2= "858740" />
    <line class="fil1 str1" x1="576200" y1="849890" x2="567360" y2= "858740" />
    <line class="fil1 str1" x1="173860" y1="849890" x2="170880" y2= "849890" />
    <line class="fil1 str1" x1="653150" y1="849890" x2="662000" y2= "858740" />
    <line class="fil1 str1" x1="173860" y1="849890" x2="182710" y2= "858740" />
    <line class="fil1 str1" x1="97020" y1="849890" x2="88060" y2= "858740" />
    <line class="fil1 str1" x1="653150" y1="849890" x2="650170" y2= "849890" />
    <line class="fil1 str1" x1="99900" y1="376570" x2="99900" y2= "849890" />
    <line class="fil1 str1" x1="579180" y1="376570" x2="579180" y2= "846910" />
    <line class="fil1 str1" x1="170880" y1="849890" x2="170880" y2= "376570" />
    <line class="fil1 str1" x1="650170" y1="849890" x2="650170" y2= "376570" />
    <line class="fil1 str1" x1="667970" y1="370600" x2="662000" y2= "370600" />
    <line class="fil1 str1" x1="561490" y1="376570" x2="667970" y2= "376570" />
    <line class="fil1 str1" x1="188570" y1="376570" x2="188570" y2= "370600" />
    <line class="fil1 str1" x1="561490" y1="370600" x2="561490" y2= "376570" />
    <line class="fil1 str1" x1="667970" y1="376570" x2="667970" y2= "370600" />
    <line class="fil1 str1" x1="82100" y1="370600" x2="82100" y2= "376570" />
    <line class="fil1 str1" x1="82100" y1="376570" x2="188570" y2= "376570" />
    <line class="fil1 str1" x1="188570" y1="370600" x2="182710" y2= "370600" />
    <line class="fil1 str1" x1="182710" y1="370600" x2="182710" y2= "352910" />
    <line class="fil1 str1" x1="88060" y1="352910" x2="88060" y2= "370600" />
    <line class="fil1 str1" x1="662000" y1="370600" x2="662000" y2= "352910" />
    <line class="fil1 str1" x1="567360" y1="352910" x2="567360" y2= "370600" />
    <line class="fil1 str1" x1="648670" y1="339590" x2="662000" y2= "352910" />
    <line class="fil1 str1" x1="580680" y1="339590" x2="567360" y2= "352910" />
    <line class="fil1 str1" x1="101390" y1="339590" x2="88060" y2= "352910" />
    <line class="fil1 str1" x1="169390" y1="339590" x2="182710" y2= "352910" />
    <line class="fil1 str1" x1="102880" y1="341080" x2="168000" y2= "341080" />
    <path class="fil1 str1" d="M319030 185050c-18010,-4160 -36990,-750 -52550,9270 -15450,10130 -26220,26010 -29840,44130"/>
    <path class="fil1 str1" d="M579180 283100c0,-2240 -320,-4580 -850,-6820"/>
    <line class="fil1 str1" x1="170880" y1="341080" x2="170880" y2= "283100" />
    <line class="fil1 str1" x1="102880" y1="341080" x2="101390" y2= "339590" />
    <line class="fil1 str1" x1="169390" y1="339590" x2="168000" y2= "341080" />
    <path class="fil1 str1" d="M236640 238450c-13650,-3950 -28240,-2140 -40500,5010 -12360,7140 -21110,18970 -24410,32820"/>
    <path class="fil1 str1" d="M513430 238450c-3630,-18120 -14390,-34000 -29840,-44130 -15560,-10020 -34430,-13430 -52440,-9270"/>
    <line class="fil1 str1" x1="650170" y1="341080" x2="650170" y2= "288320" />
    <path class="fil1 str1" d="M578330 276280c-3300,-13850 -12040,-25680 -24300,-32820 -12260,-7150 -26960,-8960 -40610,-5010"/>
    <line class="fil1 str1" x1="648670" y1="339590" x2="647180" y2= "341080" />
    <path class="fil1 str1" d="M650170 288320c0,-2770 -210,-5650 -640,-8530"/>
    <line class="fil1 str1" x1="582170" y1="341080" x2="580680" y2= "339590" />
    <line class="fil1 str1" x1="99900" y1="288320" x2="99900" y2= "341080" />
    <line class="fil1 str1" x1="579180" y1="283100" x2="579180" y2= "341080" />
    <path class="fil1 str1" d="M100540 279800c-430,2870 -640,5750 -640,8530"/>
    <path class="fil1 str1" d="M220650 169700c-61070,3620 -111270,49560 -120110,110090"/>
    <path class="fil1 str1" d="M649530 279800c-8850,-60540 -59050,-106480 -120010,-110100"/>
    <path class="fil1 str1" d="M171730 276280c-530,2240 -850,4590 -850,6820"/>
    <line class="fil1 str1" x1="220650" y1="165540" x2="220650" y2= "169700" />
    <path class="fil1 str1" d="M529520 165540c-1390,-320 -2660,-740 -3940,-1070 -1280,-420 -2560,-850 -3840,-1170 -1280,-420 -2560,-850 -3840,-1380 -1170,-430 -2450,-860 -3630,-1390 -1170,-530 -2450,-1070 -3510,-1700 -1180,-530 -2350,-1170 -3420,-1920 -1170,-640 -2240,-1280 -3190,-2130 -1070,-640 -2140,-1490 -3090,-2350 -1070,-850 -2030,-1700 -2990,-2550 -960,-960 -1810,-1820 -2770,-2770 -850,-960 -1810,-2030 -2660,-2990 -860,-1070 -1710,-2030 -2560,-3090 -1810,-2130 -3410,-4160 -5220,-6290 -850,-1060 -1700,-2020 -2560,-3090 -850,-960 -1810,-2020 -2660,-2870 -960,-1070 -1810,-1920 -2770,-2880 -960,-850 -1920,-1700 -2990,-2560 -960,-850 -2020,-1600 -3090,-2340 -960,-750 -2130,-1490 -3200,-2130 -1060,-750 -2240,-1390 -3410,-1920 -1170,-640 -2340,-1170 -3510,-1700 -1180,-430 -2460,-960 -3630,-1390 -1280,-530 -2560,-960 -3840,-1380 -1280,-320 -2560,-750 -3840,-1180 -1280,-320 -2560,-740 -3940,-1070"/>
    <path class="fil1 str1" d="M304640 110230c-1390,320 -2670,750 -3950,1070 -1280,430 -2550,850 -3840,1170 -1280,430 -2550,850 -3730,1390 -1280,420 -2550,960 -3730,1380 -1170,530 -2340,1070 -3510,1710 -1170,530 -2350,1170 -3410,1910 -1070,640 -2130,1390 -3200,2130 -1070,750 -2130,1500 -3090,2350 -960,850 -1920,1700 -2880,2560 -960,960 -1920,1810 -2870,2870 -860,860 -1710,1920 -2670,2880 -850,1070 -1700,2030 -2550,3090 -1710,2130 -3420,4160 -5120,6290 -850,1060 -1810,2020 -2660,3090 -860,960 -1710,2020 -2670,2980 -850,960 -1810,1810 -2770,2770 -960,860 -1910,1710 -2870,2560 -1070,860 -2030,1700 -3090,2350 -1070,850 -2130,1490 -3310,2130 -1060,740 -2240,1380 -3300,1910 -1170,640 -2340,1180 -3630,1710 -1170,530 -2340,960 -3620,1380 -1280,530 -2560,960 -3840,1390 -1280,320 -2560,740 -3840,1170 -1280,320 -2560,750 -3840,1070"/>
    <path class="fil1 str1" d="M375090 195390c1700,0 3410,0 5010,-110 3410,-100 6820,-420 10230,-850 3410,-320 6820,-850 10230,-1490 3410,-640 6820,-1390 10230,-2240 3310,-750 6720,-1710 10130,-2660 3410,-960 6820,-1920 10230,-2990 6720,-2130 13540,-4370 20360,-6500 3410,-1070 6820,-2130 10130,-3090 3410,-960 6820,-1810 10230,-2660 3410,-860 6820,-1600 10230,-2130 3410,-640 6820,-1180 10130,-1600 3410,-430 6820,-640 10230,-860 3410,-100 6820,-100 10230,0 3410,110 6820,320 10230,640 2130,320 4370,540 6610,860"/>
    <line class="fil1 str1" x1="529520" y1="169700" x2="529520" y2= "165540" />
    <path class="fil1 str1" d="M220650 169700c2130,-320 4370,-530 6510,-850 3410,-320 6810,-540 10230,-650 3410,-100 6820,-100 10230,0 3410,220 6820,430 10230,860 3410,430 6820,960 10130,1600 3410,530 6820,1280 10230,2130 3410,850 6820,1700 10230,2660 3410,960 6710,2030 10130,3090 6820,2130 13640,4370 20360,6500 3410,1070 6820,2030 10230,2990 3410,960 6820,1920 10230,2660 3410,850 6710,1600 10130,2240 3410,640 6810,1170 10230,1490 3410,430 6820,750 10230,850 1700,110 3410,110 5110,110"/>
    <path class="fil1 str1" d="M375090 182700c-2560,0 -5120,-210 -7680,-530 -2340,-320 -4580,-740 -6820,-1280 -2020,-530 -4040,-1070 -6070,-1810 -2030,-640 -4050,-1490 -6080,-2460 -2020,-950 -4040,-2020 -5970,-3190 -2020,-1180 -3940,-2560 -5750,-3950 -1920,-1380 -3840,-2980 -5650,-4580 -1810,-1710 -3620,-3520 -5220,-5440 -1810,-1910 -3410,-4040 -5010,-6180 -1600,-2240 -3200,-4580 -4590,-6930 -1490,-2660 -2770,-5220 -4040,-7990 -1290,-2880 -2460,-5760 -3420,-8740 -1060,-3090 -1910,-6290 -2550,-9490 -750,-3300 -1280,-6600 -1600,-9910"/>
    <path class="fil1 str1" d="M445430 110230c-430,4050 -1070,7990 -2030,11940 -850,3510 -1810,6820 -3090,10230 -960,2660 -2130,5430 -3410,8100 -1170,2450 -2560,5010 -4050,7350 -1380,2350 -2880,4590 -4470,6720 -1600,2030 -3310,4050 -5010,5970 -1710,1810 -3520,3520 -5340,5220 -1810,1600 -3620,3090 -5540,4480 -1920,1380 -3840,2660 -5860,3830 -2020,1070 -3940,2140 -6070,2990 -1920,960 -3950,1700 -6080,2450 -2020,640 -4050,1170 -6070,1710 -2030,420 -4050,740 -6080,950 -1490,220 -2980,320 -4470,430 -960,0 -1920,110 -2770,110"/>
    <path class="fil1 str1" d="M445430 110230c3510,-31870 -9170,-63090 -32300,-80360 -23230,-17160 -52970,-17160 -76090,0 -23240,17260 -35920,48490 -32400,80360"/>
    <line class="fil1 str1" x1="99900" y1="849890" x2="97020" y2= "849890" />
    <line class="fil1 str1" x1="88060" y1="370600" x2="82100" y2= "370600" />
    <line class="fil1 str1" x1="582170" y1="341080" x2="647180" y2= "341080" />
    <line class="fil1 str1" x1="567360" y1="370600" x2="561490" y2= "370600" />
    <line class="fil1 str1" x1="99900" y1="849890" x2="170880" y2= "849890" />
    <line class="fil1 str1" x1="650170" y1="849890" x2="576200" y2= "849890" />
    <line class="fil1 str1" x1="579180" y1="846910" x2="579180" y2= "849890" />
   </g>
  </g>
 </g>
</svg>
