<?xml version="1.0" encoding="UTF-8"?>
<!DOCTYPE svg PUBLIC "-//W3C//DTD SVG 1.1//EN" "http://www.w3.org/Graphics/SVG/1.1/DTD/svg11.dtd">
<!-- Creator: Corel DESIGNER -->
<svg xmlns="http://www.w3.org/2000/svg" xml:space="preserve" width="750px" height="1000px" version="1.1" style="shape-rendering:geometricPrecision; text-rendering:geometricPrecision; image-rendering:optimizeQuality; fill-rule:evenodd; clip-rule:evenodd"
viewBox="0 0 750000 1000000"
 xmlns:xlink="http://www.w3.org/1999/xlink"
 xmlns:xodm="http://www.corel.com/coreldraw/odm/2003">
 <defs>
  <style type="text/css">
   <![CDATA[
    .str0 {stroke:white;stroke-width:2810;stroke-linejoin:bevel;stroke-miterlimit:22.9256}
    .fil1 {fill:none}
    .fil0 {fill:black}
   ]]>
  </style>
 </defs>
 <g id="Слой_x0020_1">
  <metadata id="CorelCorpID_0Corel-Layer"/>
  <g id="_2999615833744">
   <g id="_2595665100640">
    <g>
     <polygon class="fil0" points="363160,559490 300830,512820 300830,512820 289880,503140 289880,503140 289030,502290 289030,502290 288460,501720 288460,501720 287460,500720 287460,500720 285330,498590 285330,498590 281060,494180 281060,494180 273230,484930 273230,484930 264980,472550 264980,472550 264550,471840 264550,471840 263700,470410 263700,470410 262280,467710 262280,467710 259570,462020 259570,462020 255160,450210 255160,450210 251320,434980 251320,434980 251180,434270 251180,434270 250890,432560 250890,432560 250320,429290 250320,429290 249470,422750 249470,422750 249190,409370 249190,409370 251320,393430 251320,393430 251460,392580 251460,392580 251890,391020 251890,391020 252890,388030 252890,388030 255020,382050 255020,382050 261000,370530 261000,370530 268820,360140 268820,360140 269250,359710 269250,359710 270250,358570 270250,358570 272240,356440 272240,356440 276650,352450 276650,352450 286040,345620 286040,345620 296710,340220 296710,340220 297420,339930 297420,339930 298700,339510 298700,339510 301270,338650 301270,338650 306530,337090 306530,337090 317480,335380 317480,335380 329720,335090 329720,335090 330290,335090 330290,335090 331570,335090 331570,335090 334130,335240 334130,335240 339110,335810 339110,335810 348930,337800 348930,337800 357470,340640 357470,340640 357890,340790 357890,340790 358460,341070 358460,341070 359880,341640 359880,341640 362450,342780 362450,342780 363160,343210 363160,343210 363160,248160 363160,248160 306960,246590 306960,246590 254310,253710 254310,253710 205930,269920 205930,269920 161820,295110 161820,295110 122550,329260 122550,329260 88820,372660 88820,372660 61360,425020 61360,425020 41160,485920 41160,485920 29490,554220 29490,554220 27640,627500 27640,627500 36320,701630 36320,701630 54960,770930 54960,770930 82140,831400 82140,831400 95370,853170 95370,853170 363160,853170 363160,853170 "/>
     <g>
     </g>
    </g>
    <g>
     <polygon class="fil0" points="396740,559490 459060,512820 459060,512820 470160,503140 470160,503140 470870,502290 470870,502290 471440,501720 471440,501720 472580,500720 472580,500720 474710,498590 474710,498590 478980,494180 478980,494180 486670,484930 486670,484930 495060,472550 495060,472550 495490,471840 495490,471840 496200,470410 496200,470410 497770,467710 497770,467710 500470,462020 500470,462020 504880,450210 504880,450210 508720,434980 508720,434980 508860,434270 508860,434270 509150,432560 509150,432560 509720,429290 509720,429290 510430,422750 510430,422750 510860,409370 510860,409370 508720,393430 508720,393430 508440,392580 508440,392580 508150,391020 508150,391020 507160,388030 507160,388030 504880,382050 504880,382050 498900,370530 498900,370530 491220,360140 491220,360140 490790,359710 490790,359710 489800,358570 489800,358570 487660,356440 487660,356440 483390,352450 483390,352450 474000,345620 474000,345620 463190,340220 463190,340220 462620,339930 462620,339930 461340,339510 461340,339510 458780,338650 458780,338650 453370,337090 453370,337090 442560,335380 442560,335380 430320,335090 430320,335090 429610,335090 429610,335090 428470,335090 428470,335090 425910,335240 425910,335240 420930,335810 420930,335810 411110,337800 411110,337800 402290,340790 402290,340790 401720,340930 401720,340930 400580,341360 400580,341360 398590,342350 398590,342350 394460,344490 394460,344490 386780,349750 386780,349750 379950,357430 379950,357430 366150,344770 366150,344770 357180,340500 357180,340500 356610,340360 356610,340360 355620,339930 355620,339930 353340,339080 353340,339080 348930,337800 348930,337800 339960,335950 339960,335950 329010,334950 329010,334950 328440,334950 328440,334950 327160,334950 327160,334950 324600,334950 324600,334950 319620,335240 319620,335240 309660,336520 309660,336520 296140,340500 296140,340500 295570,340640 295570,340640 294290,341210 294290,341210 291730,342350 291730,342350 287040,345050 287040,345050 277930,351320 277930,351320 268250,360710 268250,360710 267830,361280 267830,361280 266830,362410 266830,362410 264980,364690 264980,364690 261710,369530 261710,369530 256020,379770 256020,379770 251180,394150 251180,394150 250890,394860 250890,394860 250610,396420 250610,396420 250040,399690 250040,399690 249330,405960 249330,405960 249190,418760 249190,418760 251460,435840 251460,435840 251610,436690 251610,436690 252030,438260 252030,438260 252740,441530 252740,441530 254450,447930 254450,447930 258860,460450 258860,460450 265270,473260 265270,473260 265690,473830 265690,473830 266550,475250 266550,475250 268250,477810 268250,477810 271810,483080 271810,483080 279780,492750 279780,492750 289600,502860 289600,502860 290170,503280 290170,503280 291300,504420 291300,504420 293440,506410 293440,506410 297990,510400 297990,510400 307380,517940 307380,517940 315640,524340 315640,524340 326160,532310 326160,532310 351920,551090 351920,551090 379950,572150 379950,572150 385500,567880 385500,567880 391190,563620 391190,563620 "/>
     <g>
     </g>
    </g>
    <g>
     <polygon class="fil0" points="396740,343210 402860,340500 402860,340500 403140,340360 403140,340360 403850,340070 403850,340070 405130,339650 405130,339650 407840,338790 407840,338790 413240,337230 413240,337230 424490,335380 424490,335380 430890,334950 430890,334950 431600,334950 431600,334950 432880,334950 432880,334950 435300,334950 435300,334950 440420,335240 440420,335240 450380,336520 450380,336520 463900,340500 463900,340500 464470,340640 464470,340640 465750,341210 465750,341210 468170,342350 468170,342350 473010,345050 473010,345050 481970,351320 481970,351320 491650,360710 491650,360710 492220,361280 492220,361280 493070,362410 493070,362410 494920,364690 494920,364690 498330,369530 498330,369530 504030,379770 504030,379770 508860,394150 508860,394150 509010,394860 509010,394860 509430,396420 509430,396420 510000,399690 510000,399690 510710,405960 510710,405960 510710,418760 510710,418760 508580,435840 508580,435840 508290,436690 508290,436690 508010,438260 508010,438260 507300,441530 507300,441530 505590,447930 505590,447930 501040,460450 501040,460450 494630,473260 494630,473260 494350,473830 494350,473830 493500,475250 493500,475250 491790,477810 491790,477810 488230,483080 488230,483080 480120,492750 480120,492750 470450,502860 470450,502860 469880,503280 469880,503280 468740,504420 468740,504420 466460,506410 466460,506410 461910,510400 461910,510400 452660,517940 452660,517940 444260,524340 444260,524340 433880,532310 433880,532310 408120,551090 408120,551090 396740,559490 396740,559490 396740,853170 396740,853170 636360,853170 636360,853170 671500,803510 671500,803510 700100,745170 700100,745170 720730,679290 720730,679290 731970,607860 731970,607860 732830,533880 732830,533880 723010,461450 723010,461450 703090,394290 703090,394290 674340,334950 674340,334950 637920,284870 637920,284870 595090,244600 595090,244600 546860,214290 546860,214290 493640,193660 493640,193660 436150,182850 436150,182850 396740,181000 396740,181000 "/>
     <g>
     </g>
    </g>
    <g>
     <polygon class="fil0" points="636360,853170 396740,853170 396740,853170 363160,853170 363160,853170 95370,853170 95370,853170 43150,853170 43150,853170 43150,987630 43150,987630 715320,987630 715320,987630 715320,853170 715320,853170 "/>
     <g>
     </g>
    </g>
    <line class="fil1 str0" x1="43150" y1="987630" x2="715320" y2= "987630" />
    <line class="fil1 str0" x1="43150" y1="987630" x2="43150" y2= "853170" />
    <line class="fil1 str0" x1="43150" y1="853170" x2="715320" y2= "853170" />
    <line class="fil1 str0" x1="715320" y1="853170" x2="715320" y2= "987630" />
    <line class="fil1 str0" x1="396740" y1="853170" x2="396740" y2= "559490" />
    <line class="fil1 str0" x1="396740" y1="853170" x2="636360" y2= "853170" />
    <path class="fil1 str0" d="M396740 181000c351600,-860 422170,456890 239620,672170"/>
    <line class="fil1 str0" x1="363160" y1="853170" x2="363160" y2= "559490" />
    <line class="fil1 str0" x1="363160" y1="853170" x2="95370" y2= "853170" />
    <path class="fil1 str0" d="M363160 248160c-341780,-35300 -406520,394140 -267790,605010"/>
    <path class="fil1 str0" d="M379950 572150c-20490,-15790 -41830,-30730 -62610,-46380 -9670,-7400 -19210,-14800 -28030,-23200 -9250,-8820 -17780,-18640 -24190,-29740 -6690,-11380 -11100,-24190 -13800,-37420 -2700,-13800 -3270,-28180 -140,-41690 2990,-12100 9110,-23770 17360,-33300 7690,-8680 17220,-15790 27890,-20060 10390,-4130 21770,-5690 33010,-5270 9540,290 19070,1990 28030,5550 8820,3560 17210,8820 22480,16790"/>
    <path class="fil1 str0" d="M379950 572150c20630,-15790 41830,-30730 62610,-46380 9670,-7400 19210,-14800 28170,-23200 9250,-8820 17790,-18640 24190,-29740 6690,-11380 11100,-24190 13660,-37420 2710,-13800 3420,-28180 140,-41690 -2840,-12100 -8960,-23770 -17210,-33300 -7690,-8680 -17220,-15790 -28030,-20060 -10250,-4130 -21630,-5690 -32870,-5270 -9680,290 -19210,1990 -28030,5550 -8970,3560 -17360,8820 -22630,16790"/>
    <line class="fil1 str0" x1="363160" y1="343210" x2="363160" y2= "248160" />
    <line class="fil1 str0" x1="396740" y1="343210" x2="396740" y2= "181000" />
   </g>
  </g>
 </g>
</svg>
