<?xml version="1.0" encoding="UTF-8"?>
<!DOCTYPE svg PUBLIC "-//W3C//DTD SVG 1.1//EN" "http://www.w3.org/Graphics/SVG/1.1/DTD/svg11.dtd">
<!-- Creator: Corel DESIGNER -->
<svg xmlns="http://www.w3.org/2000/svg" xml:space="preserve" width="750px" height="1000px" version="1.1" style="shape-rendering:geometricPrecision; text-rendering:geometricPrecision; image-rendering:optimizeQuality; fill-rule:evenodd; clip-rule:evenodd"
viewBox="0 0 750000 1000000"
 xmlns:xlink="http://www.w3.org/1999/xlink"
 xmlns:xodm="http://www.corel.com/coreldraw/odm/2003">
 <defs>
  <style type="text/css">
   <![CDATA[
    .str0 {stroke:white;stroke-width:2810;stroke-linejoin:bevel;stroke-miterlimit:22.9256}
    .fil1 {fill:none}
    .fil0 {fill:black}
   ]]>
  </style>
 </defs>
 <g id="Слой_x0020_1">
  <metadata id="CorelCorpID_0Corel-Layer"/>
  <g id="_2998997829968">
   <g id="_2595618498976">
    <g>
     <polygon class="fil0" points="409460,515770 429590,523610 429590,523610 449860,525310 449860,525310 467890,515900 467890,515900 477960,498380 477960,498380 479010,489750 479010,489750 479010,483480 479010,483480 473260,464000 473260,464000 457960,450670 457960,450670 455740,449620 455740,449620 409460,431710 409460,431710 409460,266340 409460,266340 509200,266340 509200,266340 528680,260720 528680,260720 542020,245430 542020,245430 545420,231700 545420,231700 538880,212480 538880,212480 523060,199810 523060,199810 509200,197060 509200,197060 409460,197060 409460,197060 409460,125290 409460,125290 429070,125290 429070,125290 446320,119670 446320,119670 456780,104900 456780,104900 458090,96270 458090,96270 458090,88550 458090,88550 452470,71300 452470,71300 437700,60840 437700,60840 429070,59540 429070,59540 409460,59540 409460,59540 409460,38360 409460,38360 403710,21100 403710,21100 388940,10640 388940,10640 380440,9340 380440,9340 368150,9340 368150,9340 351020,14960 351020,14960 340440,29730 340440,29730 339130,38360 339130,38360 339130,59540 339130,59540 319520,59540 319520,59540 302260,65160 302260,65160 291800,79930 291800,79930 290500,88550 290500,88550 290500,96270 290500,96270 296120,113530 296120,113530 310890,123990 310890,123990 319520,125290 319520,125290 339130,125290 339130,125290 339130,197060 339130,197060 239390,197060 239390,197060 219910,202680 219910,202680 206580,217970 206580,217970 203180,231700 203180,231700 209710,250920 209710,250920 225530,263600 225530,263600 239390,266340 239390,266340 339130,266340 339130,266340 339130,404650 339130,404650 317690,396420 317690,396420 297560,394580 297560,394580 279520,403990 279520,403990 269450,421640 269450,421640 268410,430140 268410,430140 268410,436030 268410,436030 274030,455630 274030,455630 289320,468970 289320,468970 291540,469880 291540,469880 339130,488450 339130,488450 339130,734990 339130,734990 409460,734990 409460,734990 "/>
     <g>
     </g>
    </g>
    <g>
     <polygon class="fil0" points="480570,812780 442800,789380 442800,789380 400180,776570 400180,776570 374300,774340 374300,774340 330370,780620 330370,780620 289450,797870 289450,797870 267750,812910 267750,812910 260830,818130 260830,818130 252980,822060 252980,822060 244220,825070 244220,825070 218860,838790 218860,838790 200820,861400 200820,861400 193110,889120 193110,889120 192850,894480 192850,894480 192850,989000 192850,989000 555740,989000 555740,989000 555740,894480 555740,894480 549990,866110 549990,866110 533650,842320 533650,842320 509330,826760 509330,826760 504370,825070 504370,825070 495470,821930 495470,821930 487510,818000 487510,818000 "/>
     <g>
     </g>
    </g>
    <g>
     <polygon class="fil0" points="339130,734990 305400,734990 305400,734990 301740,738660 301740,738660 301740,771330 301740,771330 446850,771330 446850,771330 446850,738660 446850,738660 443190,734990 443190,734990 "/>
     <g>
     </g>
    </g>
    <g>
     <polygon class="fil0" points="267750,812910 305400,789510 305400,789510 347890,776690 347890,776690 374300,774340 374300,774340 418220,780620 418220,780620 459130,797870 459130,797870 480570,812780 480570,812780 475470,807030 475470,807030 471030,800490 471030,800490 466980,793430 466980,793430 465020,785060 465020,785060 465020,774870 465020,774870 461360,771330 461360,771330 287230,771330 287230,771330 283570,774870 283570,774870 283570,785060 283570,785060 281480,793430 281480,793430 277560,800620 277560,800620 272980,807280 272980,807280 "/>
     <g>
     </g>
    </g>
    <path class="fil1 str0" d="M555740 894480c0,-31900 -20910,-60140 -51370,-69410"/>
    <line class="fil1 str0" x1="287230" y1="771330" x2="283570" y2= "774870" />
    <line class="fil1 str0" x1="465020" y1="785060" x2="465020" y2= "774870" />
    <line class="fil1 str0" x1="555740" y1="894480" x2="555740" y2= "989000" />
    <path class="fil1 str0" d="M244220 825070c1180,-400 2230,-660 3400,-1050 1570,-530 3010,-1050 4450,-1700 1570,-530 3010,-1180 4450,-1830 1310,-650 2740,-1440 4050,-2220 1310,-790 2480,-1570 3790,-2490 1170,-910 2220,-1830 3400,-2870"/>
    <path class="fil1 str0" d="M466980 793430c130,130 260,260 260,390 790,1440 1570,2880 2350,4310 790,1310 1580,2750 2490,4050 790,1440 1700,2620 2610,3930 920,1170 1830,2480 2880,3530 910,1040 1960,2080 3010,3130"/>
    <path class="fil1 str0" d="M374300 774340c-38830,390 -76480,13990 -106550,38570"/>
    <line class="fil1 str0" x1="287230" y1="771330" x2="461360" y2= "771330" />
    <path class="fil1 str0" d="M281480 793430c1440,-2610 2090,-5490 2090,-8370"/>
    <line class="fil1 str0" x1="283570" y1="774870" x2="283570" y2= "785060" />
    <line class="fil1 str0" x1="192850" y1="894480" x2="192850" y2= "989000" />
    <path class="fil1 str0" d="M465020 785060c0,2880 650,5760 1960,8370"/>
    <path class="fil1 str0" d="M480570 812780c-30060,-24580 -67580,-38040 -106280,-38440"/>
    <path class="fil1 str0" d="M480570 812780c130,0 130,130 260,130 1050,1040 2230,1960 3400,2870 1310,920 2490,1700 3790,2490 1310,780 2750,1570 4050,2220 1440,650 2880,1310 4320,1830 1570,650 3010,1170 4570,1700 1050,390 2230,650 3400,1050"/>
    <path class="fil1 str0" d="M267750 812910c0,0 0,0 0,0 1180,-1050 2230,-2090 3270,-3270 910,-1050 1960,-2350 2870,-3530 920,-1310 1830,-2480 2620,-3920 910,-1310 1700,-2750 2480,-4050 790,-1440 1570,-2880 2350,-4320 0,-120 130,-260 130,-390"/>
    <line class="fil1 str0" x1="461360" y1="771330" x2="465020" y2= "774870" />
    <path class="fil1 str0" d="M244220 825070c-30460,9280 -51370,37520 -51370,69410"/>
    <line class="fil1 str0" x1="443190" y1="734990" x2="446850" y2= "738660" />
    <line class="fil1 str0" x1="446850" y1="771330" x2="446850" y2= "738660" />
    <line class="fil1 str0" x1="301740" y1="771330" x2="301740" y2= "738660" />
    <line class="fil1 str0" x1="305400" y1="734990" x2="443190" y2= "734990" />
    <line class="fil1 str0" x1="301740" y1="738660" x2="305400" y2= "734990" />
    <line class="fil1 str0" x1="290500" y1="88550" x2="290500" y2= "96270" />
    <line class="fil1 str0" x1="409460" y1="734990" x2="409460" y2= "515770" />
    <line class="fil1 str0" x1="409460" y1="431710" x2="409460" y2= "266340" />
    <line class="fil1 str0" x1="339130" y1="59540" x2="319520" y2= "59540" />
    <line class="fil1 str0" x1="339130" y1="266340" x2="339130" y2= "404650" />
    <line class="fil1 str0" x1="291540" y1="469880" x2="339130" y2= "488450" />
    <line class="fil1 str0" x1="479010" y1="489750" x2="479010" y2= "483480" />
    <line class="fil1 str0" x1="268410" y1="430140" x2="268410" y2= "436030" />
    <path class="fil1 str0" d="M203180 231700c910,19350 16860,34640 36210,34640"/>
    <path class="fil1 str0" d="M509200 266340c19350,0 35300,-15290 36220,-34640"/>
    <path class="fil1 str0" d="M239390 197060c-19350,0 -35300,15300 -36210,34640"/>
    <line class="fil1 str0" x1="339130" y1="38360" x2="339130" y2= "59540" />
    <line class="fil1 str0" x1="409460" y1="125290" x2="429070" y2= "125290" />
    <line class="fil1 str0" x1="409460" y1="197060" x2="409460" y2= "125290" />
    <line class="fil1 str0" x1="339130" y1="404650" x2="317690" y2= "396420" />
    <line class="fil1 str0" x1="339130" y1="488450" x2="339130" y2= "734990" />
    <path class="fil1 str0" d="M429590 523610c11110,4310 23660,2880 33600,-3920 9930,-6800 15810,-17910 15810,-29940"/>
    <line class="fil1 str0" x1="409460" y1="59540" x2="409460" y2= "38360" />
    <line class="fil1 str0" x1="458090" y1="96270" x2="458090" y2= "88550" />
    <path class="fil1 str0" d="M479010 483480c0,-14900 -9290,-28370 -23270,-33860"/>
    <path class="fil1 str0" d="M409460 38360c0,-7710 -3140,-15160 -8630,-20520 -5360,-5490 -12810,-8500 -20390,-8500"/>
    <line class="fil1 str0" x1="509200" y1="197060" x2="409460" y2= "197060" />
    <line class="fil1 str0" x1="455740" y1="449620" x2="409460" y2= "431710" />
    <path class="fil1 str0" d="M429070 125290c16080,0 29020,-12940 29020,-29020"/>
    <path class="fil1 str0" d="M268410 436030c0,15030 9150,28500 23130,33860"/>
    <path class="fil1 str0" d="M317690 396420c-11110,-4450 -23660,-2880 -33470,3920 -9930,6660 -15810,17910 -15810,29810"/>
    <path class="fil1 str0" d="M458090 88550c0,-7710 -3010,-15160 -8500,-20520 -5490,-5490 -12810,-8500 -20520,-8500"/>
    <line class="fil1 str0" x1="409460" y1="266340" x2="509200" y2= "266340" />
    <path class="fil1 str0" d="M368150 9340c-7710,0 -15030,3010 -20520,8500 -5370,5360 -8500,12810 -8500,20520"/>
    <path class="fil1 str0" d="M545420 231700c-920,-19350 -16870,-34640 -36220,-34640"/>
    <line class="fil1 str0" x1="380440" y1="9340" x2="368150" y2= "9340" />
    <path class="fil1 str0" d="M290500 96270c0,7710 3010,15040 8500,20530 5490,5490 12810,8490 20520,8490"/>
    <line class="fil1 str0" x1="239390" y1="266340" x2="339130" y2= "266340" />
    <line class="fil1 str0" x1="409460" y1="515770" x2="429590" y2= "523610" />
    <line class="fil1 str0" x1="429070" y1="59540" x2="409460" y2= "59540" />
    <line class="fil1 str0" x1="339130" y1="125290" x2="339130" y2= "197060" />
    <line class="fil1 str0" x1="339130" y1="197060" x2="239390" y2= "197060" />
    <line class="fil1 str0" x1="319520" y1="125290" x2="339130" y2= "125290" />
    <path class="fil1 str0" d="M319520 59540c-7710,0 -15030,3010 -20520,8500 -5490,5360 -8500,12810 -8500,20520"/>
    <line class="fil1 str0" x1="192850" y1="989000" x2="555740" y2= "989000" />
   </g>
  </g>
 </g>
</svg>
