<?xml version="1.0" encoding="UTF-8"?>
<!DOCTYPE svg PUBLIC "-//W3C//DTD SVG 1.1//EN" "http://www.w3.org/Graphics/SVG/1.1/DTD/svg11.dtd">
<!-- Creator: Corel DESIGNER -->
<svg xmlns="http://www.w3.org/2000/svg" xml:space="preserve" width="750px" height="1000px" version="1.1" style="shape-rendering:geometricPrecision; text-rendering:geometricPrecision; image-rendering:optimizeQuality; fill-rule:evenodd; clip-rule:evenodd"
viewBox="0 0 750000 1000000"
 xmlns:xlink="http://www.w3.org/1999/xlink"
 xmlns:xodm="http://www.corel.com/coreldraw/odm/2003">
 <defs>
  <style type="text/css">
   <![CDATA[
    .str0 {stroke:white;stroke-width:2810;stroke-linejoin:bevel;stroke-miterlimit:22.9256}
    .fil1 {fill:none}
    .fil0 {fill:black}
    .fil2 {fill:#FEFEFE}
   ]]>
  </style>
 </defs>
 <g id="Слой_x0020_1">
  <metadata id="CorelCorpID_0Corel-Layer"/>
  <g id="_2998784762544">
   <g id="_2649826942816">
    <g>
     <polygon class="fil0" points="162310,10290 162310,880820 162310,880820 234890,880820 234890,880820 234890,808240 234890,808240 234890,198430 234890,198430 270910,180290 270910,180290 307050,165630 307050,165630 343620,157260 343620,157260 343620,10290 343620,10290 "/>
     <g>
     </g>
    </g>
    <g>
     <polygon class="fil0" points="234890,198430 234890,808240 234890,808240 299380,802380 299380,802380 361900,785210 361900,785210 420390,757150 420390,757150 472870,719190 472870,719190 517810,672430 517810,672430 553680,618550 553680,618550 579370,558950 579370,558950 594020,495870 594020,495870 597510,445480 597510,445480 597510,208480 597510,208480 596530,209320 596530,209320 595420,209320 595420,209320 594300,208620 594300,208620 594160,208480 594160,208480 594020,208480 594020,208480 593880,208480 593880,208480 593880,208480 593880,208480 593740,208480 593740,208480 593600,208620 593600,208620 593600,208620 593600,208620 593600,208620 593600,208620 593600,208620 593600,208620 546420,203310 546420,203310 487940,185450 487940,185450 419690,162980 419690,162980 368470,155720 368470,155720 326450,160330 326450,160330 281370,175540 281370,175540 "/>
     <g>
     </g>
    </g>
    <g>
     <polygon class="fil0" points="234890,880820 597510,880820 597510,880820 597510,808240 597510,808240 531070,741660 531070,741660 464210,775160 464210,775160 393170,797770 393170,797770 319340,809220 319340,809220 244660,809080 244660,809080 234890,808240 234890,808240 "/>
     <g>
     </g>
    </g>
    <g>
     <polygon class="fil0" points="531070,741660 591790,698250 591790,698250 597510,693370 597510,693370 569460,665170 569460,665170 521160,713610 521160,713610 465470,753240 465470,753240 403920,782830 403920,782830 338180,801540 338180,801540 270350,808940 270350,808940 234890,808240 234890,808240 309570,809910 309570,809910 383540,800000 383540,800000 455150,778790 455150,778790 522560,746690 522560,746690 "/>
     <g>
     </g>
    </g>
    <g>
     <polygon class="fil0" points="565270,595110 533450,651490 533450,651490 491990,701320 491990,701320 442310,743060 442310,743060 386060,775160 386060,775160 324920,796790 324920,796790 260990,807260 260990,807260 234890,808240 234890,808240 303150,806840 303150,806840 370280,793860 370280,793860 434210,769860 434210,769860 493110,735380 493110,735380 545450,691410 545450,691410 589560,639210 589560,639210 597510,627350 597510,627350 "/>
     <g>
     </g>
    </g>
    <g>
     <polygon class="fil0" points="597510,880820 89740,880820 89740,880820 89740,989550 89740,989550 670090,989550 670090,989550 670090,880820 670090,880820 "/>
     <g>
     </g>
    </g>
    <line class="fil1 str0" x1="89740" y1="989550" x2="89740" y2= "880820" />
    <line class="fil1 str0" x1="670090" y1="880820" x2="670090" y2= "989550" />
    <line class="fil1 str0" x1="670090" y1="989550" x2="89740" y2= "989550" />
    <line class="fil1 str0" x1="89740" y1="880820" x2="670090" y2= "880820" />
    <line class="fil1 str0" x1="597510" y1="808240" x2="531070" y2= "741660" />
    <line class="fil1 str0" x1="597510" y1="880820" x2="597510" y2= "808240" />
    <line class="fil1 str0" x1="234890" y1="808240" x2="234890" y2= "880820" />
    <path class="fil1 str0" d="M234890 808240c144600,9350 283060,-59740 362620,-180890"/>
    <line class="fil1 str0" x1="565270" y1="595110" x2="597510" y2= "627350" />
    <path class="fil1 str0" d="M234890 808240c103290,10330 207130,-12980 296180,-66580"/>
    <path class="fil1 str0" d="M531070 741660c23450,-14100 45780,-30290 66440,-48300"/>
    <line class="fil1 str0" x1="569460" y1="665170" x2="597510" y2= "693370" />
    <line class="fil1 str0" x1="234890" y1="198430" x2="234890" y2= "808240" />
    <path class="fil1 str0" d="M234890 808240c200290,0 362620,-162330 362620,-362760"/>
    <line class="fil1 str0" x1="597510" y1="445480" x2="597510" y2= "208480" />
    <path class="fil1 str0" d="M593600 208620c0,0 0,0 0,0 0,0 0,0 0,0 0,0 0,0 0,0 0,0 0,0 0,0 0,0 0,0 0,0"/>
    <line class="fil1 str0" x1="162310" y1="880820" x2="162310" y2= "10290" />
    <line class="fil1 str0" x1="343620" y1="10290" x2="343620" y2= "157260" />
    <line class="fil1 str0" x1="162310" y1="10290" x2="343620" y2= "10290" />
    <path class="fil1 str0" d="M416200 227880c-60010,0 -108730,65050 -108730,145160 0,80120 48720,145020 108730,145020 60160,0 108870,-64900 108870,-145020 0,-80110 -48710,-145160 -108870,-145160z"/>
    <path class="fil1 str0" d="M593880 208480c0,0 -140,0 -280,140"/>
    <path class="fil1 str0" d="M597510 208480c-980,0 -2090,0 -3210,140"/>
    <path class="fil1 str0" d="M593600 208620c-6280,0 -12560,-280 -18840,-840 -6290,-560 -12560,-1390 -18980,-2510 -6420,-1120 -12710,-2510 -19130,-4190 -6420,-1670 -12840,-3480 -19260,-5580 -6420,-1950 -12840,-4190 -19260,-6420 -12840,-4470 -25680,-9350 -38660,-13810 -6420,-2240 -12840,-4470 -19260,-6420 -6420,-2100 -12840,-3910 -19260,-5590 -6280,-1670 -12700,-3070 -19120,-4180 -6280,-1120 -12560,-1960 -18980,-2510 -6290,-560 -12560,-840 -18850,-840 -6280,130 -12560,560 -18840,1250 -6140,840 -12420,1950 -18560,3350 -6140,1400 -12430,3070 -18570,5030 -6140,1950 -12280,4190 -18420,6700 -6010,2510 -12150,5160 -18290,8100 -6000,2790 -12140,5860 -18280,8930 -6010,3070 -12150,6280 -18150,9350"/>
    <path class="fil1 str0" d="M597510 208480c-140,140 -280,280 -280,420 -140,130 -280,280 -560,280 0,130 -140,130 -280,130 0,0 0,140 -140,140 -130,0 -270,0 -410,0 0,0 0,0 0,0 -140,-140 -280,-140 -280,-140 -140,0 -140,-130 -280,-130 -140,0 -140,-140 -280,-140 -140,-140 -140,-140 -280,-280 -140,0 -140,-140 -280,-140 0,0 -140,0 -140,0"/>
    <path class="fil1 str0" d="M594300 208620c0,-140 -130,-140 -130,-140 -140,0 -140,0 -280,0"/>
    <polygon class="fil2" points="416200,227880 383820,234440 383820,234440 354370,253560 354370,253560 330500,283570 330500,283570 314450,321680 314450,321680 307610,364390 307610,364390 310680,407930 310680,407930 323250,448270 323250,448270 344320,481770 344320,481770 371820,505500 371820,505500 403360,517080 403360,517080 436160,515550 436160,515550 467150,501170 467150,501170 493390,475210 493390,475210 512790,439900 512790,439900 523250,398440 523250,398440 524240,354760 524240,354760 515160,312750 515160,312750 497300,276180 497300,276180 472030,248400 472030,248400 441600,231930 441600,231930 "/>
   </g>
  </g>
 </g>
</svg>
