<?xml version="1.0" encoding="UTF-8"?>
<!DOCTYPE svg PUBLIC "-//W3C//DTD SVG 1.1//EN" "http://www.w3.org/Graphics/SVG/1.1/DTD/svg11.dtd">
<!-- Creator: Corel DESIGNER -->
<svg xmlns="http://www.w3.org/2000/svg" xml:space="preserve" width="750px" height="1000px" version="1.1" style="shape-rendering:geometricPrecision; text-rendering:geometricPrecision; image-rendering:optimizeQuality; fill-rule:evenodd; clip-rule:evenodd"
viewBox="0 0 750000 1000000"
 xmlns:xlink="http://www.w3.org/1999/xlink"
 xmlns:xodm="http://www.corel.com/coreldraw/odm/2003">
 <defs>
  <style type="text/css">
   <![CDATA[
    .str0 {stroke:black;stroke-width:4000;stroke-miterlimit:22.9256}
    .str1 {stroke:white;stroke-width:4000;stroke-linejoin:bevel;stroke-miterlimit:22.9256}
    .fil1 {fill:none}
    .fil0 {fill:black}
   ]]>
  </style>
 </defs>
 <g id="Слой_x0020_1">
  <metadata id="CorelCorpID_0Corel-Layer"/>
  <g id="_2999643709312">
   <g id="_2595658470432">
    <g>
     <polygon class="fil0 str0" points="126810,840030 622030,840030 622030,840030 622030,739890 622030,739890 619970,734870 619970,734870 614950,732810 614950,732810 596340,732810 596340,732810 577730,732810 577730,732810 374500,732810 374500,732810 171260,732810 171260,732810 152660,732810 152660,732810 134050,732810 134050,732810 128880,734870 128880,734870 126810,739890 126810,739890 "/>
     <g>
     </g>
    </g>
    <g>
     <polygon class="fil0 str0" points="51490,947410 370950,947410 370950,947410 374500,950950 374500,950950 374500,918750 374500,918750 381590,911670 381590,911670 697360,911670 697360,911670 697360,847270 697360,847270 695300,842240 695300,842240 690270,840030 690270,840030 660290,840030 660290,840030 629420,840030 629420,840030 119430,840030 119430,840030 88560,840030 88560,840030 58720,840030 58720,840030 53700,842240 53700,842240 51490,847270 51490,847270 "/>
     <g>
     </g>
    </g>
    <g>
     <polygon class="fil0 str0" points="370950,947410 12790,947410 12790,947410 9250,950950 9250,950950 9250,983150 9250,983150 374500,983150 374500,983150 374500,950950 374500,950950 "/>
     <g>
     </g>
    </g>
    <g>
     <polygon class="fil0 str0" points="374500,983150 733100,983150 733100,983150 733100,918750 733100,918750 725860,911670 725860,911670 381590,911670 381590,911670 374500,918750 374500,918750 "/>
     <g>
     </g>
    </g>
    <g>
     <polygon class="fil0 str0" points="373170,454250 440220,418500 440220,418500 506090,370650 506090,370650 557350,320580 557350,320580 584960,280560 584960,280560 604610,234620 604610,234620 608740,220000 608740,220000 613910,171260 613910,171260 613770,170080 613770,170080 613620,167420 613620,167420 613320,162250 613320,162250 611850,152060 611850,152060 607120,131830 607120,131830 590870,95930 590870,95930 590130,94760 590130,94760 588510,92390 588510,92390 585410,87960 585410,87960 578620,79390 578620,79390 563100,63740 563100,63740 550840,54140 550840,54140 550110,53550 550110,53550 548340,52360 548340,52360 544940,50000 544940,50000 537990,45720 537990,45720 523230,38330 523230,38330 511850,34200 511850,34200 510970,33900 510970,33900 509350,33460 509350,33460 505950,32580 505950,32580 499150,31100 499150,31100 485270,29030 485270,29030 468880,28290 468880,28290 467400,28290 467400,28290 464440,28290 464440,28290 458540,28440 458540,28440 446570,29320 446570,29320 423390,33610 423390,33610 389120,49850 389120,49850 374500,63000 374500,63000 342750,43800 342750,43800 318370,34940 318370,34940 317340,34640 317340,34640 315270,34200 315270,34200 311130,33020 311130,33020 302870,31240 302870,31240 285880,28740 285880,28740 275690,28140 275690,28140 274650,28140 274650,28140 272730,28140 272730,28140 268890,28290 268890,28290 261220,28880 261220,28880 246000,31240 246000,31240 224590,37740 224590,37740 223550,38040 223550,38040 221480,38920 221480,38920 217500,40700 217500,40700 209520,44680 209520,44680 194600,53990 194600,53990 176880,69060 176880,69060 175990,69940 175990,69940 174220,71710 174220,71710 170820,75410 170820,75410 164330,82940 164330,82940 152950,99480 152950,99480 141280,125030 141280,125030 140990,126360 140990,126360 140100,128870 140100,128870 138630,134040 138630,134040 136410,144670 136410,144670 133900,166390 133900,166390 134190,192970 134190,192970 134190,194450 134190,194450 134490,197260 134490,197260 134940,202720 134940,202720 136260,213650 136260,213650 140400,235070 140400,235070 148370,258400 148370,258400 148820,259580 148820,259580 150000,261940 150000,261940 152210,266530 152210,266530 157240,275680 157240,275680 168610,293260 168610,293260 182490,311420 182490,311420 183230,312460 183230,312460 184860,314380 184860,314380 188110,318360 188110,318360 194750,326040 194750,326040 208340,340820 208340,340820 235070,366520 235070,366520 236840,368140 236840,368140 240530,371240 240530,371240 247920,377450 247920,377450 263280,389260 263280,389260 295180,411270 295180,411270 360760,448190 360760,448190 "/>
     <g>
     </g>
    </g>
    <g>
     <polygon class="fil0 str0" points="374790,724240 445540,642850 445540,642850 507280,554530 507280,554530 559410,460010 559410,460010 601210,360610 601210,360610 632230,257370 632230,257370 637840,232850 637840,232850 608740,220000 608740,220000 608740,220000 608740,220000 608740,220000 608740,220000 608740,220000 608740,220000 592350,265780 592350,265780 565020,311130 565020,311130 529280,349980 529280,349980 482320,389550 482320,389550 416590,432540 416590,432540 373170,454250 373170,454250 267120,496340 267120,496340 157530,527500 157530,527500 149260,529280 149260,529280 216460,602530 216460,602530 291640,667670 291640,667670 373760,723640 373760,723640 "/>
     <g>
     </g>
    </g>
    <g>
     <polygon class="fil0 str0" points="637540,233880 609040,337860 609040,337860 569610,438300 569610,438300 519830,533850 519830,533850 460160,623660 460160,623660 391330,706660 391330,706660 374790,724240 374790,724240 292530,668260 292530,668260 217350,603270 217350,603270 150000,530160 150000,530160 149260,529280 149260,529280 149110,529420 149110,529420 181460,606080 181460,606080 224140,677710 224140,677710 267120,732810 267120,732810 374500,732810 374500,732810 481730,732810 481730,732810 533860,654970 533860,654970 575950,571520 575950,571520 607710,483490 607710,483490 628390,392220 628390,392220 637840,299020 637840,299020 "/>
     <g>
     </g>
    </g>
    <line class="fil1 str1" x1="51490" y1="947410" x2="51490" y2= "847270" />
    <line class="fil1 str1" x1="697360" y1="911670" x2="697360" y2= "847270" />
    <line class="fil1 str1" x1="660290" y1="840030" x2="690270" y2= "840030" />
    <path class="fil1 str1" d="M697360 847270c0,-1920 -740,-3690 -2060,-5030 -1330,-1470 -3110,-2210 -5030,-2210"/>
    <line class="fil1 str1" x1="629420" y1="840030" x2="660290" y2= "840030" />
    <line class="fil1 str1" x1="119430" y1="840030" x2="629420" y2= "840030" />
    <line class="fil1 str1" x1="58720" y1="840030" x2="88560" y2= "840030" />
    <line class="fil1 str1" x1="88560" y1="840030" x2="119430" y2= "840030" />
    <path class="fil1 str1" d="M58720 840030c-1920,0 -3690,740 -5020,2210 -1330,1330 -2220,3110 -2220,5030"/>
    <line class="fil1 str1" x1="126810" y1="840030" x2="126810" y2= "739890" />
    <line class="fil1 str1" x1="622030" y1="840030" x2="622030" y2= "739890" />
    <line class="fil1 str1" x1="577730" y1="732810" x2="596340" y2= "732810" />
    <line class="fil1 str1" x1="596340" y1="732810" x2="614950" y2= "732810" />
    <line class="fil1 str1" x1="171260" y1="732810" x2="374500" y2= "732810" />
    <path class="fil1 str1" d="M134050 732810c-1920,0 -3840,730 -5170,2060 -1330,1330 -2070,3250 -2070,5020"/>
    <line class="fil1 str1" x1="374500" y1="732810" x2="577730" y2= "732810" />
    <line class="fil1 str1" x1="152660" y1="732810" x2="171260" y2= "732810" />
    <line class="fil1 str1" x1="134050" y1="732810" x2="152660" y2= "732810" />
    <path class="fil1 str1" d="M622030 739890c0,-1770 -730,-3690 -2060,-5020 -1330,-1330 -3100,-2060 -5020,-2060"/>
    <path class="fil1 str1" d="M149110 529420c25700,74740 65870,143860 118010,203380"/>
    <path class="fil1 str1" d="M149110 529420c77100,-17280 152130,-42390 224060,-75170"/>
    <path class="fil1 str1" d="M637840 232850c-9160,-5320 -18910,-9750 -29100,-12850"/>
    <path class="fil1 str1" d="M374790 724240c131750,-136180 222880,-306330 263050,-491390"/>
    <path class="fil1 str1" d="M608740 220000c-440,1770 -880,3400 -1330,5020 -440,1480 -730,2960 -1180,4280 -590,1780 -1030,3550 -1620,5320 -740,2370 -1480,4730 -2360,7090 -1190,3550 -2520,6950 -3990,10490 -1780,4580 -3690,9010 -5760,13440 -2360,5170 -4870,10050 -7530,15070 -2510,4430 -5170,8720 -7830,13000 -2360,3690 -4730,7230 -7230,10780 -2360,3400 -5030,6790 -7530,10040 -3250,4130 -6500,7980 -9900,11820 -3400,3690 -6790,7380 -10340,11070 -3250,3250 -6500,6500 -9740,9750 -3550,3250 -7090,6500 -10640,9740 -5170,4730 -10490,9450 -15950,13890 -6060,5170 -12260,10190 -18610,14910 -7830,6200 -15810,11970 -24080,17730 -7530,5170 -15210,10330 -23190,15210 -7530,4730 -15210,9300 -23040,13740 -5760,3250 -11670,6350 -17580,9300 -8570,4430 -17280,8720 -26140,12560"/>
    <path class="fil1 str1" d="M374500 63000c-16400,-13290 -35600,-22010 -55690,-27920 -13880,-3980 -28210,-6650 -42680,-6940 -17280,-300 -34850,2950 -51100,9300 -17730,6950 -33970,17730 -47710,31170 -15950,15510 -28650,34850 -35740,55830 -7390,21410 -8720,44750 -7390,67940 1190,22600 5170,45050 13890,65430 8270,19200 20670,36630 33960,53170 15960,19640 32940,37960 51690,54500 41210,36480 90250,64830 139430,88760"/>
    <path class="fil1 str1" d="M608740 220000c3840,-15660 5760,-31610 5170,-47860 -890,-26440 -8710,-53310 -22750,-75770 -10330,-16540 -24220,-30570 -39870,-41940 -11970,-8710 -24960,-15800 -39000,-20240 -13440,-4130 -27910,-5760 -42240,-5900 -35300,-590 -70750,7530 -95560,34710"/>
    <path class="fil1 str1" d="M222960 552170c114170,-33090 221400,-86550 316510,-157890"/>
    <path class="fil1 str1" d="M372870 668110c74440,-78420 131160,-171770 166600,-273830"/>
    <path class="fil1 str1" d="M222960 552170c42240,47710 93200,86990 149910,115940"/>
    <line class="fil1 str1" x1="374500" y1="983150" x2="9250" y2= "983150" />
    <line class="fil1 str1" x1="9250" y1="950950" x2="9250" y2= "983150" />
    <line class="fil1 str1" x1="9250" y1="950950" x2="12790" y2= "947410" />
    <line class="fil1 str1" x1="374500" y1="950950" x2="370950" y2= "947410" />
    <line class="fil1 str1" x1="370950" y1="947410" x2="12790" y2= "947410" />
    <line class="fil1 str1" x1="733100" y1="983150" x2="374500" y2= "983150" />
    <line class="fil1 str1" x1="374500" y1="918750" x2="374500" y2= "983150" />
    <line class="fil1 str1" x1="733100" y1="918750" x2="733100" y2= "983150" />
    <line class="fil1 str1" x1="725860" y1="911670" x2="381590" y2= "911670" />
    <line class="fil1 str1" x1="374500" y1="918750" x2="381590" y2= "911670" />
    <line class="fil1 str1" x1="733100" y1="918750" x2="725860" y2= "911670" />
    <path class="fil1 str1" d="M481730 732810c108850,-142830 164080,-319470 155820,-498920"/>
    <path class="fil1 str1" d="M149260 529280c63360,77540 139570,143410 225530,194960"/>
   </g>
  </g>
 </g>
</svg>
