<?xml version="1.0" encoding="UTF-8"?>
<!DOCTYPE svg PUBLIC "-//W3C//DTD SVG 1.1//EN" "http://www.w3.org/Graphics/SVG/1.1/DTD/svg11.dtd">
<!-- Creator: Corel DESIGNER -->
<svg xmlns="http://www.w3.org/2000/svg" xml:space="preserve" width="750px" height="1000px" version="1.1" style="shape-rendering:geometricPrecision; text-rendering:geometricPrecision; image-rendering:optimizeQuality; fill-rule:evenodd; clip-rule:evenodd"
viewBox="0 0 750000 1000000"
 xmlns:xlink="http://www.w3.org/1999/xlink"
 xmlns:xodm="http://www.corel.com/coreldraw/odm/2003">
 <defs>
  <style type="text/css">
   <![CDATA[
    .str0 {stroke:#FEFEFE;stroke-width:3130;stroke-miterlimit:22.9256}
    .str1 {stroke:#FEFEFE;stroke-width:3130;stroke-linejoin:bevel;stroke-miterlimit:22.9256}
    .fil1 {fill:none}
    .fil0 {fill:black}
   ]]>
  </style>
 </defs>
 <g id="Слой_x0020_1">
  <metadata id="CorelCorpID_0Corel-Layer"/>
  <g id="_2998784767296">
   <g id="_2649926773968">
    <g>
     <polygon class="fil0" points="559240,77110 516200,59890 516200,59890 469820,51540 469820,51540 420880,52700 420880,52700 371030,63490 371030,63490 323230,83790 323230,83790 281090,112180 281090,112180 266580,125420 266580,125420 262980,129010 262980,129010 256170,136460 256170,136460 243710,152010 243710,152010 224440,185150 224440,185150 210820,228190 210820,228190 206450,277010 206450,277010 211080,334180 211080,334180 215320,360650 215320,360650 216470,366560 216470,366560 218660,378510 218660,378510 223280,403040 223280,403040 229320,435680 229320,435680 233300,461110 233300,461110 236520,488740 236520,488740 237670,522270 237670,522270 233040,564150 233040,564150 217630,604110 217630,604110 193610,633650 193610,633650 161740,655240 161740,655240 141830,663850 141830,663850 151460,731030 151460,731030 167270,789230 167270,789230 189370,838570 189370,838570 192960,844860 192960,844860 554870,844860 554870,844860 570800,785510 570800,785510 583390,730390 583390,730390 592380,679000 592380,679000 597650,629930 597650,629930 598550,581360 598550,581360 594830,533060 594830,533060 589430,498630 589430,498630 584160,472030 584160,472030 579410,449550 579410,449550 574530,428100 574530,428100 570930,413060 570930,413060 569520,406900 569520,406900 566560,394690 566560,394690 563730,382360 563730,382360 560780,370280 560780,370280 557570,356540 557570,356540 553710,339840 553710,339840 549220,319150 549220,319150 544210,293070 544210,293070 539200,259800 539200,259800 536370,216370 536370,216370 540350,156510 540350,156510 552560,99340 552560,99340 "/>
     <g>
     </g>
     <polygon id="_1" class="fil1 str0" points="559240,77110 516200,59890 516200,59890 469820,51540 469820,51540 420880,52700 420880,52700 371030,63490 371030,63490 323230,83790 323230,83790 281090,112180 281090,112180 266580,125420 266580,125420 262980,129010 262980,129010 256170,136460 256170,136460 243710,152010 243710,152010 224440,185150 224440,185150 210820,228190 210820,228190 206450,277010 206450,277010 211080,334180 211080,334180 215320,360650 215320,360650 216470,366560 216470,366560 218660,378510 218660,378510 223280,403040 223280,403040 229320,435680 229320,435680 233300,461110 233300,461110 236520,488740 236520,488740 237670,522270 237670,522270 233040,564150 233040,564150 217630,604110 217630,604110 193610,633650 193610,633650 161740,655240 161740,655240 141830,663850 141830,663850 151460,731030 151460,731030 167270,789230 167270,789230 189370,838570 189370,838570 192960,844860 192960,844860 554870,844860 554870,844860 570800,785510 570800,785510 583390,730390 583390,730390 592380,679000 592380,679000 597650,629930 597650,629930 598550,581360 598550,581360 594830,533060 594830,533060 589430,498630 589430,498630 584160,472030 584160,472030 579410,449550 579410,449550 574530,428100 574530,428100 570930,413060 570930,413060 569520,406900 569520,406900 566560,394690 566560,394690 563730,382360 563730,382360 560780,370280 560780,370280 557570,356540 557570,356540 553710,339840 553710,339840 549220,319150 549220,319150 544210,293070 544210,293070 539200,259800 539200,259800 536370,216370 536370,216370 540350,156510 540350,156510 552560,99340 552560,99340 "/>
    </g>
    <g>
     <polygon class="fil0" points="141830,663850 174970,647660 174970,647660 201310,626070 201310,626070 220710,598450 220710,598450 233040,564150 233040,564150 237670,521500 237670,521500 235620,479490 235620,479490 231370,448520 231370,448520 227130,423350 227130,423350 222250,397520 222250,397520 215960,364250 215960,364250 214420,354860 214420,354860 213390,349090 213390,349090 211590,337780 211590,337780 208770,315680 208770,315680 206450,273800 206450,273800 212110,222020 212110,222020 227910,178090 227910,178090 253470,139680 253470,139680 270300,121820 270300,121820 274160,118350 274160,118350 282120,111410 282120,111410 299340,98440 299340,98440 338780,76080 338780,76080 390680,57970 390680,57970 445030,50900 445030,50900 497700,55400 497700,55400 546260,70940 546260,70940 559240,77110 559240,77110 545750,126950 545750,126950 537910,176160 537910,176160 536630,227290 536630,227290 541640,277780 541640,277780 548190,314400 548190,314400 554100,341510 554100,341510 558850,361800 558850,361800 562450,377350 562450,377350 565530,389940 565530,389940 568360,402020 568360,402020 571440,415250 571440,415250 572340,419230 572340,419230 573880,425270 573880,425270 576710,437610 576710,437610 581590,459570 581590,459570 586090,481160 586090,481160 590590,505180 590590,505180 594960,534090 594960,534090 598170,571210 598170,571210 598040,622610 598040,622610 592130,680670 592130,680670 581590,739390 581590,739390 566820,801180 566820,801180 554870,844860 554870,844860 573880,787560 573880,787560 590330,731940 590330,731940 603430,675530 603430,675530 611530,616180 611530,616180 613320,562350 613320,562350 609210,496440 609210,496440 605620,466770 605620,466770 604720,459830 604720,459830 602660,446080 602660,446080 598300,418080 598300,418080 592770,385960 592770,385960 589050,363220 589050,363220 584930,337780 584930,337780 580560,305270 580560,305270 576970,261210 576970,261210 578130,200310 578130,200310 588660,136590 588660,136590 607420,76850 607420,76850 612940,62980 612940,62980 563220,43190 563220,43190 516460,29830 516460,29830 472520,22890 472520,22890 430890,22380 430890,22380 391320,28420 391320,28420 353170,41520 353170,41520 315780,61440 315780,61440 282630,85080 282630,85080 279550,87520 279550,87520 273520,92520 273520,92520 262460,102540 262460,102540 242940,122720 242940,122720 215830,159720 215830,159720 195920,201980 195920,201980 192190,213420 192190,213420 191550,216110 191550,216110 190130,221380 190130,221380 187700,232180 187700,232180 184610,253760 184610,253760 184610,297830 184610,297830 192960,351910 192960,351910 193610,354860 193610,354860 194890,360910 194890,360910 197460,372860 197460,372860 202860,397270 202860,397270 207990,422060 207990,422060 213130,450320 213130,450320 217630,484620 217630,484620 219430,513150 219430,513150 219430,516490 219430,516490 219550,523290 219550,523290 219170,536780 219170,536780 216600,563510 216600,563510 205420,601280 205420,601280 184100,632760 184100,632760 154940,656270 154940,656270 "/>
     <g>
     </g>
     <polygon id="_1_0" class="fil1 str0" points="141830,663850 174970,647660 174970,647660 201310,626070 201310,626070 220710,598450 220710,598450 233040,564150 233040,564150 237670,521500 237670,521500 235620,479490 235620,479490 231370,448520 231370,448520 227130,423350 227130,423350 222250,397520 222250,397520 215960,364250 215960,364250 214420,354860 214420,354860 213390,349090 213390,349090 211590,337780 211590,337780 208770,315680 208770,315680 206450,273800 206450,273800 212110,222020 212110,222020 227910,178090 227910,178090 253470,139680 253470,139680 270300,121820 270300,121820 274160,118350 274160,118350 282120,111410 282120,111410 299340,98440 299340,98440 338780,76080 338780,76080 390680,57970 390680,57970 445030,50900 445030,50900 497700,55400 497700,55400 546260,70940 546260,70940 559240,77110 559240,77110 545750,126950 545750,126950 537910,176160 537910,176160 536630,227290 536630,227290 541640,277780 541640,277780 548190,314400 548190,314400 554100,341510 554100,341510 558850,361800 558850,361800 562450,377350 562450,377350 565530,389940 565530,389940 568360,402020 568360,402020 571440,415250 571440,415250 572340,419230 572340,419230 573880,425270 573880,425270 576710,437610 576710,437610 581590,459570 581590,459570 586090,481160 586090,481160 590590,505180 590590,505180 594960,534090 594960,534090 598170,571210 598170,571210 598040,622610 598040,622610 592130,680670 592130,680670 581590,739390 581590,739390 566820,801180 566820,801180 554870,844860 554870,844860 573880,787560 573880,787560 590330,731940 590330,731940 603430,675530 603430,675530 611530,616180 611530,616180 613320,562350 613320,562350 609210,496440 609210,496440 605620,466770 605620,466770 604720,459830 604720,459830 602660,446080 602660,446080 598300,418080 598300,418080 592770,385960 592770,385960 589050,363220 589050,363220 584930,337780 584930,337780 580560,305270 580560,305270 576970,261210 576970,261210 578130,200310 578130,200310 588660,136590 588660,136590 607420,76850 607420,76850 612940,62980 612940,62980 563220,43190 563220,43190 516460,29830 516460,29830 472520,22890 472520,22890 430890,22380 430890,22380 391320,28420 391320,28420 353170,41520 353170,41520 315780,61440 315780,61440 282630,85080 282630,85080 279550,87520 279550,87520 273520,92520 273520,92520 262460,102540 262460,102540 242940,122720 242940,122720 215830,159720 215830,159720 195920,201980 195920,201980 192190,213420 192190,213420 191550,216110 191550,216110 190130,221380 190130,221380 187700,232180 187700,232180 184610,253760 184610,253760 184610,297830 184610,297830 192960,351910 192960,351910 193610,354860 193610,354860 194890,360910 194890,360910 197460,372860 197460,372860 202860,397270 202860,397270 207990,422060 207990,422060 213130,450320 213130,450320 217630,484620 217630,484620 219430,513150 219430,513150 219430,516490 219430,516490 219550,523290 219550,523290 219170,536780 219170,536780 216600,563510 216600,563510 205420,601280 205420,601280 184100,632760 184100,632760 154940,656270 154940,656270 "/>
    </g>
    <g>
     <polygon class="fil0" points="300110,71970 275190,56040 275190,56040 253090,39340 253090,39340 233950,21990 233950,21990 200160,60410 200160,60410 173300,100620 173300,100620 153780,143270 153780,143270 141570,189910 141570,189910 137210,242840 137210,242840 141700,305920 141700,305920 148250,344970 148250,344970 149540,351140 149540,351140 152240,363350 152240,363350 158280,388010 158280,388010 168290,425400 168290,425400 172020,439140 172020,439140 175490,451740 175490,451740 179350,466770 179350,466770 184100,486550 184100,486550 188980,513280 188980,513280 191940,548610 191940,548610 185890,594980 185890,594980 169200,631860 169200,631860 142990,662690 142990,662690 141830,663850 141830,663850 170610,645090 170610,645090 192830,622350 192830,622350 208380,594210 208380,594210 217370,558240 217370,558240 219550,518540 219550,518540 219300,509680 219300,509680 219170,506340 219170,506340 218790,499530 218790,499530 217760,485910 217760,485910 214420,458930 214420,458930 208380,423600 208380,423600 202600,395850 202600,395850 197330,371950 197330,371950 192450,348960 192450,348960 191800,346000 191800,346000 190650,340220 190650,340220 188590,328660 188590,328660 185380,305790 185380,305790 184100,261470 184100,261470 192580,212260 192580,212260 193090,210720 193090,210720 193860,208020 193860,208020 195660,202760 195660,202760 199640,192220 199640,192220 209280,171280 209280,171280 236640,130040 236640,130040 273380,92650 273380,92650 284310,83660 284310,83660 286110,82250 286110,82250 289570,79550 289570,79550 297030,74150 297030,74150 "/>
     <g>
     </g>
     <polygon id="_1_1" class="fil1 str0" points="300110,71970 275190,56040 275190,56040 253090,39340 253090,39340 233950,21990 233950,21990 200160,60410 200160,60410 173300,100620 173300,100620 153780,143270 153780,143270 141570,189910 141570,189910 137210,242840 137210,242840 141700,305920 141700,305920 148250,344970 148250,344970 149540,351140 149540,351140 152240,363350 152240,363350 158280,388010 158280,388010 168290,425400 168290,425400 172020,439140 172020,439140 175490,451740 175490,451740 179350,466770 179350,466770 184100,486550 184100,486550 188980,513280 188980,513280 191940,548610 191940,548610 185890,594980 185890,594980 169200,631860 169200,631860 142990,662690 142990,662690 141830,663850 141830,663850 170610,645090 170610,645090 192830,622350 192830,622350 208380,594210 208380,594210 217370,558240 217370,558240 219550,518540 219550,518540 219300,509680 219300,509680 219170,506340 219170,506340 218790,499530 218790,499530 217760,485910 217760,485910 214420,458930 214420,458930 208380,423600 208380,423600 202600,395850 202600,395850 197330,371950 197330,371950 192450,348960 192450,348960 191800,346000 191800,346000 190650,340220 190650,340220 188590,328660 188590,328660 185380,305790 185380,305790 184100,261470 184100,261470 192580,212260 192580,212260 193090,210720 193090,210720 193860,208020 193860,208020 195660,202760 195660,202760 199640,192220 199640,192220 209280,171280 209280,171280 236640,130040 236640,130040 273380,92650 273380,92650 284310,83660 284310,83660 286110,82250 286110,82250 289570,79550 289570,79550 297030,74150 297030,74150 "/>
    </g>
    <g>
     <polygon class="fil0" points="179860,627230 197330,602180 197330,602180 201180,593700 201180,593700 201440,593050 201440,593050 202080,591640 202080,591640 203110,588820 203110,588820 205040,583030 205040,583030 208120,571340 208120,571340 210560,557340 210560,557340 210690,556570 210690,556570 210820,555030 210820,555030 211210,551940 211210,551940 211850,545770 211850,545770 212620,533320 212620,533320 212750,518540 212750,518540 212620,517770 212620,517770 212620,516100 212620,516100 212620,512890 212620,512890 212360,506600 212360,506600 211590,493620 211590,493620 210050,478460 210050,478460 209920,477300 209920,477300 209660,474990 209660,474990 209150,470110 209150,470110 207870,460600 207870,460600 204780,441710 204780,441710 199130,412810 199130,412810 196690,401370 196690,401370 196430,399830 196430,399830 195790,396880 195790,396880 194500,390970 194500,390970 191800,379150 191800,379150 187950,360910 187950,360910 183840,340350 183840,340350 181910,329810 181910,329810 181660,328530 181660,328530 181270,325700 181270,325700 180370,320180 180370,320180 178960,309130 178960,309130 177160,287290 177160,287290 177160,262110 177160,262110 177290,260690 177290,260690 177420,258130 177420,258130 177930,252730 177930,252730 179090,242070 179090,242070 183200,220870 183200,220870 190650,196330 190650,196330 191160,195050 191160,195050 192190,192480 192190,192480 194250,187340 194250,187340 198740,176930 198740,176930 209790,156510 209790,156510 225720,132860 225720,132860 226620,131710 226620,131710 228550,129140 228550,129140 232660,124260 232660,124260 241270,114240 241270,114240 260920,94580 260920,94580 287780,72480 287780,72480 267990,59380 267990,59380 250130,45760 250130,45760 234070,31630 234070,31630 201700,69660 201700,69660 176390,109230 176390,109230 174850,112180 174850,112180 174080,113720 174080,113720 172540,116810 172540,116810 169580,122850 169580,122850 164310,134790 164310,134790 155960,158430 155960,158430 149280,185540 149280,185540 149030,186950 149030,186950 148510,189780 148510,189780 147610,195430 147610,195430 146070,206860 146070,206860 144270,229350 144270,229350 144140,255430 144140,255430 144270,256840 144270,256840 144270,259670 144270,259670 144530,265190 144530,265190 145300,276370 145300,276370 147610,298600 147610,298600 151460,324680 151460,324680 151720,326090 151720,326090 152240,328920 152240,328920 153270,334570 153270,334570 155450,345870 155450,345870 160460,368610 160460,368610 167140,395340 167140,395340 167530,396880 167530,396880 168290,399700 168290,399700 169960,405610 169960,405610 173180,417430 173180,417430 177030,431570 177030,431570 180630,444670 180630,444670 184740,459960 184740,459960 187050,469590 187050,469590 187440,471130 187440,471130 188210,474220 188210,474220 189620,480380 189620,480380 192320,492850 192320,492850 196560,517380 196560,517380 198740,547700 198740,547700 198740,549250 198740,549250 198740,552460 198740,552460 198620,558880 198620,558880 197590,571860 197590,571860 192320,597810 192320,597810 "/>
     <g>
     </g>
     <polygon id="_1_2" class="fil1 str0" points="179860,627230 197330,602180 197330,602180 201180,593700 201180,593700 201440,593050 201440,593050 202080,591640 202080,591640 203110,588820 203110,588820 205040,583030 205040,583030 208120,571340 208120,571340 210560,557340 210560,557340 210690,556570 210690,556570 210820,555030 210820,555030 211210,551940 211210,551940 211850,545770 211850,545770 212620,533320 212620,533320 212750,518540 212750,518540 212620,517770 212620,517770 212620,516100 212620,516100 212620,512890 212620,512890 212360,506600 212360,506600 211590,493620 211590,493620 210050,478460 210050,478460 209920,477300 209920,477300 209660,474990 209660,474990 209150,470110 209150,470110 207870,460600 207870,460600 204780,441710 204780,441710 199130,412810 199130,412810 196690,401370 196690,401370 196430,399830 196430,399830 195790,396880 195790,396880 194500,390970 194500,390970 191800,379150 191800,379150 187950,360910 187950,360910 183840,340350 183840,340350 181910,329810 181910,329810 181660,328530 181660,328530 181270,325700 181270,325700 180370,320180 180370,320180 178960,309130 178960,309130 177160,287290 177160,287290 177160,262110 177160,262110 177290,260690 177290,260690 177420,258130 177420,258130 177930,252730 177930,252730 179090,242070 179090,242070 183200,220870 183200,220870 190650,196330 190650,196330 191160,195050 191160,195050 192190,192480 192190,192480 194250,187340 194250,187340 198740,176930 198740,176930 209790,156510 209790,156510 225720,132860 225720,132860 226620,131710 226620,131710 228550,129140 228550,129140 232660,124260 232660,124260 241270,114240 241270,114240 260920,94580 260920,94580 287780,72480 287780,72480 267990,59380 267990,59380 250130,45760 250130,45760 234070,31630 234070,31630 201700,69660 201700,69660 176390,109230 176390,109230 174850,112180 174850,112180 174080,113720 174080,113720 172540,116810 172540,116810 169580,122850 169580,122850 164310,134790 164310,134790 155960,158430 155960,158430 149280,185540 149280,185540 149030,186950 149030,186950 148510,189780 148510,189780 147610,195430 147610,195430 146070,206860 146070,206860 144270,229350 144270,229350 144140,255430 144140,255430 144270,256840 144270,256840 144270,259670 144270,259670 144530,265190 144530,265190 145300,276370 145300,276370 147610,298600 147610,298600 151460,324680 151460,324680 151720,326090 151720,326090 152240,328920 152240,328920 153270,334570 153270,334570 155450,345870 155450,345870 160460,368610 160460,368610 167140,395340 167140,395340 167530,396880 167530,396880 168290,399700 168290,399700 169960,405610 169960,405610 173180,417430 173180,417430 177030,431570 177030,431570 180630,444670 180630,444670 184740,459960 184740,459960 187050,469590 187050,469590 187440,471130 187440,471130 188210,474220 188210,474220 189620,480380 189620,480380 192320,492850 192320,492850 196560,517380 196560,517380 198740,547700 198740,547700 198740,549250 198740,549250 198740,552460 198740,552460 198620,558880 198620,558880 197590,571860 197590,571860 192320,597810 192320,597810 "/>
    </g>
    <g>
     <polygon class="fil0" points="118450,981430 637610,981430 637610,981430 637610,844860 637610,844860 587240,844860 587240,844860 554870,844860 554870,844860 192960,844860 192960,844860 141700,844860 141700,844860 118450,844860 118450,844860 "/>
     <g>
     </g>
     <polygon id="_1_3" class="fil1 str0" points="118450,981430 637610,981430 637610,981430 637610,844860 637610,844860 587240,844860 587240,844860 554870,844860 554870,844860 192960,844860 192960,844860 141700,844860 141700,844860 118450,844860 118450,844860 "/>
    </g>
    <line class="fil1 str1" x1="118450" y1="981430" x2="637610" y2= "981430" />
    <line class="fil1 str1" x1="637610" y1="981430" x2="637610" y2= "844860" />
    <line class="fil1 str1" x1="118450" y1="844860" x2="118450" y2= "981430" />
    <line class="fil1 str1" x1="141700" y1="844860" x2="587240" y2= "844860" />
    <line class="fil1 str1" x1="637610" y1="844860" x2="141700" y2= "844860" />
    <line class="fil1 str1" x1="141700" y1="844860" x2="118450" y2= "844860" />
    <line class="fil1 str1" x1="192960" y1="844860" x2="554870" y2= "844860" />
    <path class="fil1 str1" d="M141830 663850c6810,75150 37520,158280 51130,181020"/>
    <line class="fil1 str1" x1="192960" y1="844860" x2="554870" y2= "844860" />
    <path class="fil1 str1" d="M141830 663850c6810,75150 37520,158280 51130,181020"/>
    <path class="fil1 str1" d="M233950 21990c17720,17730 52930,42140 66160,49980"/>
   </g>
  </g>
 </g>
</svg>
