<?xml version="1.0" encoding="UTF-8"?>
<!DOCTYPE svg PUBLIC "-//W3C//DTD SVG 1.1//EN" "http://www.w3.org/Graphics/SVG/1.1/DTD/svg11.dtd">
<!-- Creator: Corel DESIGNER -->
<svg xmlns="http://www.w3.org/2000/svg" xml:space="preserve" width="750px" height="1000px" version="1.1" style="shape-rendering:geometricPrecision; text-rendering:geometricPrecision; image-rendering:optimizeQuality; fill-rule:evenodd; clip-rule:evenodd"
viewBox="0 0 750000 1000000"
 xmlns:xlink="http://www.w3.org/1999/xlink"
 xmlns:xodm="http://www.corel.com/coreldraw/odm/2003">
 <defs>
  <style type="text/css">
   <![CDATA[
    .str0 {stroke:white;stroke-width:2810;stroke-linejoin:bevel;stroke-miterlimit:22.9256}
    .fil1 {fill:none}
    .fil0 {fill:black}
   ]]>
  </style>
 </defs>
 <g id="Слой_x0020_1">
  <metadata id="CorelCorpID_0Corel-Layer"/>
  <g id="_2998997092704">
   <g id="_2595300506512">
    <g>
     <polygon class="fil0" points="513740,842580 513740,568110 513740,568110 513040,554390 513040,554390 503750,516750 503750,516750 484340,483280 484340,483280 456330,456440 456330,456440 422060,438540 422060,438540 390220,431460 390220,431460 362790,431460 362790,431460 325140,440750 325140,440750 291680,460160 291680,460160 264830,488160 264830,488160 246940,522440 246940,522440 239850,554390 239850,554390 239270,568110 239270,568110 239270,842580 239270,842580 205570,842580 205570,842580 204870,843280 204870,843280 204870,979810 204870,979810 205570,979810 205570,979810 239270,979810 239270,979810 239270,979810 239270,979810 239850,979810 239850,979810 513040,979810 513040,979810 513740,979810 513740,979810 513740,979810 513740,979810 547320,979810 547320,979810 548020,979810 548020,979810 548020,843280 548020,843280 547320,842580 547320,842580 "/>
     <g>
     </g>
    </g>
    <line class="fil1 str0" x1="205570" y1="842580" x2="547320" y2= "842580" />
    <line class="fil1 str0" x1="205570" y1="979810" x2="204870" y2= "979810" />
    <line class="fil1 str0" x1="548020" y1="843280" x2="548020" y2= "979810" />
    <line class="fil1 str0" x1="548020" y1="843280" x2="547320" y2= "842580" />
    <line class="fil1 str0" x1="204870" y1="843280" x2="204870" y2= "979810" />
    <line class="fil1 str0" x1="548020" y1="979810" x2="547320" y2= "979810" />
    <line class="fil1 str0" x1="205570" y1="842580" x2="204870" y2= "843280" />
    <line class="fil1 str0" x1="513740" y1="842580" x2="513740" y2= "568110" />
    <line class="fil1 str0" x1="239270" y1="568110" x2="239270" y2= "842580" />
    <line class="fil1 str0" x1="239850" y1="979810" x2="513040" y2= "979810" />
    <line class="fil1 str0" x1="239850" y1="979810" x2="239270" y2= "979810" />
    <line class="fil1 str0" x1="513040" y1="911140" x2="513740" y2= "911840" />
    <line class="fil1 str0" x1="513740" y1="979810" x2="513040" y2= "979810" />
    <line class="fil1 str0" x1="513740" y1="979810" x2="513740" y2= "979810" />
    <line class="fil1 str0" x1="513740" y1="911840" x2="513740" y2= "911840" />
    <line class="fil1 str0" x1="239270" y1="911840" x2="239270" y2= "911840" />
    <line class="fil1 str0" x1="239270" y1="979810" x2="239270" y2= "979810" />
    <path class="fil1 str0" d="M239850 554390c-350,4540 -580,9070 -580,13720"/>
    <path class="fil1 str0" d="M513740 568110c0,-4650 -230,-9180 -700,-13710"/>
    <path class="fil1 str0" d="M513040 554390c-6510,-65070 -57870,-116430 -122820,-122940"/>
    <path class="fil1 str0" d="M390220 431460c-9180,-940 -18360,-940 -27430,0"/>
    <path class="fil1 str0" d="M362790 431460c-64960,6500 -116320,57860 -122940,122940"/>
    <line class="fil1 str0" x1="205570" y1="979810" x2="239270" y2= "979810" />
    <line class="fil1 str0" x1="513740" y1="979810" x2="547320" y2= "979810" />
   </g>
  </g>
 </g>
</svg>
