<?xml version="1.0" encoding="UTF-8"?>
<!DOCTYPE svg PUBLIC "-//W3C//DTD SVG 1.1//EN" "http://www.w3.org/Graphics/SVG/1.1/DTD/svg11.dtd">
<!-- Creator: Corel DESIGNER -->
<svg xmlns="http://www.w3.org/2000/svg" xml:space="preserve" width="750px" height="1000px" version="1.1" style="shape-rendering:geometricPrecision; text-rendering:geometricPrecision; image-rendering:optimizeQuality; fill-rule:evenodd; clip-rule:evenodd"
viewBox="0 0 750000 1000000"
 xmlns:xlink="http://www.w3.org/1999/xlink"
 xmlns:xodm="http://www.corel.com/coreldraw/odm/2003">
 <defs>
  <style type="text/css">
   <![CDATA[
    .str0 {stroke:white;stroke-width:2810;stroke-linejoin:bevel;stroke-miterlimit:22.9256}
    .fil1 {fill:none}
    .fil0 {fill:black}
   ]]>
  </style>
 </defs>
 <g id="Слой_x0020_1">
  <metadata id="CorelCorpID_0Corel-Layer"/>
  <g id="_2998998411712">
   <g id="_2595620490080">
    <g>
     <polygon class="fil0" points="577720,823990 577720,53080 577720,53080 555670,57430 555670,57430 555120,57570 555120,57570 553770,57700 553770,57700 551180,58120 551180,58120 546010,58790 546010,58790 535660,59750 535660,59750 514840,60420 514840,60420 513340,60420 513340,60420 512520,60290 512520,60290 510890,60290 510890,60290 507350,60150 507350,60150 500550,59750 500550,59750 486800,58380 486800,58380 470880,56070 470880,56070 470060,55800 470060,55800 468290,55530 468290,55530 464890,54850 464890,54850 457940,53490 457940,53490 444060,50220 444060,50220 423240,44780 423240,44780 384180,33750 384180,33750 349060,25450 349060,25450 342800,24220 342800,24220 341980,24090 341980,24090 340210,23810 340210,23810 336810,23270 336810,23270 329870,22320 329870,22320 316120,20820 316120,20820 300330,20000 300330,20000 299520,20000 299520,20000 297750,20000 297750,20000 294340,20000 294340,20000 287400,20140 287400,20140 273790,21090 273790,21090 258000,23130 258000,23130 257190,23270 257190,23270 255420,23540 255420,23540 252010,24220 252010,24220 245210,25450 245210,25450 231600,28720 231600,28720 215940,32930 215940,32930 214990,33210 214990,33210 213360,33750 213360,33750 210100,34700 210100,34700 203290,36880 203290,36880 189950,41240 189950,41240 175930,46000 175930,46000 175930,823990 175930,823990 "/>
     <g>
     </g>
    </g>
    <g>
     <polygon class="fil0" points="577720,823990 135640,823990 135640,823990 135640,908380 135640,908380 135640,984730 135640,984730 139730,984730 139730,984730 613920,984730 613920,984730 618010,984730 618010,984730 618010,908380 618010,908380 618010,823990 618010,823990 "/>
     <g>
     </g>
    </g>
    <line class="fil1 str0" x1="135640" y1="823990" x2="618010" y2= "823990" />
    <line class="fil1 str0" x1="139730" y1="984730" x2="613920" y2= "984730" />
    <line class="fil1 str0" x1="135640" y1="908380" x2="135640" y2= "984730" />
    <line class="fil1 str0" x1="139730" y1="984730" x2="135640" y2= "984730" />
    <line class="fil1 str0" x1="618010" y1="908380" x2="618010" y2= "984730" />
    <line class="fil1 str0" x1="618010" y1="908380" x2="613920" y2= "904290" />
    <line class="fil1 str0" x1="618010" y1="984730" x2="613920" y2= "984730" />
    <line class="fil1 str0" x1="139730" y1="904290" x2="135640" y2= "908380" />
    <line class="fil1 str0" x1="577720" y1="823990" x2="577720" y2= "53080" />
    <line class="fil1 str0" x1="175930" y1="46000" x2="175930" y2= "823990" />
    <path class="fil1 str0" d="M577720 53080c-7080,1630 -14290,3130 -21500,4220 -14160,2310 -28310,3260 -42330,3130 -14160,-270 -28310,-1770 -42600,-4360 -14160,-2450 -28450,-5990 -42600,-9800 -14290,-3940 -28580,-8170 -42740,-11970 -14290,-3950 -28450,-7490 -42740,-9940 -14160,-2580 -28310,-4080 -42460,-4350 -14160,-140 -28180,810 -42330,3130 -14020,2170 -28040,5580 -42060,9670 -13620,3940 -26950,8570 -40430,13200"/>
    <line class="fil1 str0" x1="135640" y1="908380" x2="135640" y2= "823990" />
    <line class="fil1 str0" x1="618010" y1="908380" x2="618010" y2= "823990" />
   </g>
  </g>
 </g>
</svg>
