<!DOCTYPE svg PUBLIC "-//W3C//DTD SVG 1.1//EN" "http://www.w3.org/Graphics/SVG/1.1/DTD/svg11.dtd">
<!-- Uploaded to: SVG Repo, www.svgrepo.com, Transformed by: SVG Repo Mixer Tools -->
<svg fill="#737e91" height="800px" width="800px" version="1.2" baseProfile="tiny" id="Layer_1" xmlns="http://www.w3.org/2000/svg" xmlns:xlink="http://www.w3.org/1999/xlink" viewBox="-102 103.6 50.4 50.4" xml:space="preserve" stroke="#737e91">
<g id="SVGRepo_bgCarrier" stroke-width="0"/>
<g id="SVGRepo_tracerCarrier" stroke-linecap="round" stroke-linejoin="round"/>
<g id="SVGRepo_iconCarrier"> <path d="M-86.4,129.2l3.1,0l0,2.1l-3.1,0l0,7.2l-2.1,0l0-7.2l-3,0l0-2.1l3,0l0-2.9l2.1,0L-86.4,129.2z M-51.9,144.9 c0,1.7-1.3,2.9-2.9,2.9h-11c-0.7,0-1.5-0.3-2-0.9c-0.6-0.6-0.9-1.4-0.9-2.1v-21.5l2.2-5.4c0.1-0.3-0.1-0.6-0.3-0.8 c-0.3-0.1-0.6,0.1-0.8,0.3l-3.5,8.5c-0.2,0.6-0.8,1.1-1.6,1.2l-2.7,0.4c0,0.1,0,0.1,0,0.2l0,0l0,0.8l0,15.1l1.8,0l0,4.2h-27.8v-4.2 l1.7,0l0-15.2c0-3.6,1.6-7,4.4-9.3c2.2-1.8,5-2.8,7.8-2.8c4.9,0,9.2,3,11.1,7.3l1.8-0.2l4-9.6c0.3-0.8,1-1.2,1.9-1.3 c0.1,0,0.4,0,0.6,0c0.1,0,0.3,0,0.4,0c4,0.7,6.7,4.3,7.6,10.6c0.3,1.9,0.8,6.2,0.9,7.8c0.3,2.2-0.4,3.7-2.1,4.7 c-0.5,0.2-1.6,0.5-1.6,0.5v6h8.1C-53.1,142-51.9,143.3-51.9,144.9z M-77.8,128.6c0-0.2,0-0.4,0-0.6l-2.7,0.4 c-1.1,0.2-2.1-0.6-2.3-1.7c-0.2-1.1,0.6-2.1,1.7-2.3l2.2-0.3c-1.6-3-4.8-5.1-8.4-5.1c-2.3,0-4.5,0.8-6.2,2.2 c-2.2,1.8-3.5,4.5-3.5,7.3l0,14.4l19.3,0.1L-77.8,128.6z M-76.5,116c2.5,0,4.6-2.1,4.6-4.6c0-2.6-2-4.6-4.6-4.6 c-2.5,0-4.6,2.1-4.6,4.6C-81.1,113.9-79,116-76.5,116z"/> </g>
</svg>