<?xml version="1.0" encoding="UTF-8"?>
<!DOCTYPE svg PUBLIC "-//W3C//DTD SVG 1.1//EN" "http://www.w3.org/Graphics/SVG/1.1/DTD/svg11.dtd">
<!-- Creator: Corel DESIGNER -->
<svg xmlns="http://www.w3.org/2000/svg" xml:space="preserve" width="750px" height="1000px" version="1.1" style="shape-rendering:geometricPrecision; text-rendering:geometricPrecision; image-rendering:optimizeQuality; fill-rule:evenodd; clip-rule:evenodd"
viewBox="0 0 750000 1000000"
 xmlns:xlink="http://www.w3.org/1999/xlink"
 xmlns:xodm="http://www.corel.com/coreldraw/odm/2003">
 <defs>
  <style type="text/css">
   <![CDATA[
    .str0 {stroke:white;stroke-width:2810;stroke-linejoin:bevel;stroke-miterlimit:22.9256}
    .fil2 {fill:none}
    .fil0 {fill:black}
    .fil1 {fill:#FEFEFE}
   ]]>
  </style>
 </defs>
 <g id="Слой_x0020_1">
  <metadata id="CorelCorpID_0Corel-Layer"/>
  <g id="_2999608772944">
   <g id="_2649916964016">
    <g>
     <polygon class="fil0" points="289960,545680 642640,545680 642640,545680 642640,134260 642640,134260 289960,134260 289960,134260 "/>
     <g>
     </g>
    </g>
    <g id="_2649916965104">
     <g>
      <polygon class="fil0" points="289960,545680 289960,134260 289960,134260 522090,134260 522090,134260 523590,132770 523590,132770 525080,131280 525080,131280 525080,19570 525080,19570 523590,18200 523590,18200 522090,16700 522090,16700 116530,16700 116530,16700 115170,18200 115170,18200 113670,19570 113670,19570 113670,839520 113670,839520 525080,839520 525080,839520 525080,548540 525080,548540 523590,547170 523590,547170 522090,545680 522090,545680 "/>
      <g>
      </g>
     </g>
     <g>
      <polygon class="fil0" points="629710,827830 627220,823850 627220,823850 627720,820730 627720,820730 628710,818620 628710,818620 629580,817130 629580,817130 630200,816130 630200,816130 630580,815510 630580,815510 630830,815140 630830,815140 630950,814760 630950,814760 631330,814270 631330,814270 631700,813640 631700,813640 632450,812400 632450,812400 633560,810410 633560,810410 633810,810040 633810,810040 634190,809420 634190,809420 634810,808050 634810,808050 636170,805430 636170,805430 638540,800580 638540,800580 641030,795610 641030,795610 641150,795360 641150,795360 641400,794860 641400,794860 641900,793860 641900,793860 642770,791870 642770,791870 644010,788640 644010,788640 645010,786030 645010,786030 645760,783660 645760,783660 645760,783410 645760,783410 645880,782790 645880,782790 646130,781800 646130,781800 646630,779680 646630,779680 647370,774960 647370,774960 647620,769360 647620,769360 647620,768860 647620,768860 647620,768490 647620,768490 647620,767740 647620,767740 647370,766370 647370,766370 646880,763380 646880,763380 644880,758530 644880,758530 641650,754550 641650,754550 638540,752560 638540,752560 570370,752560 570370,752560 565140,756790 565140,756790 562650,761400 562650,761400 561410,766120 561410,766120 561160,769110 561160,769110 561160,769480 561160,769480 561160,770230 561160,770230 561160,771590 561160,771590 561280,774210 561280,774210 562030,778930 562030,778930 563150,783910 563150,783910 563280,784160 563280,784160 563400,784660 563400,784660 563650,785530 563650,785530 564390,787520 564390,787520 565260,790010 565260,790010 566510,792870 566510,792870 568000,795860 568000,795860 568130,796110 568130,796110 568380,796600 568380,796600 568870,797720 568870,797720 569870,799960 569870,799960 572230,804690 572230,804690 575470,810780 575470,810780 575590,811030 575590,811030 576090,811780 576090,811780 576840,813150 576840,813150 577950,814890 577950,814890 578200,815260 578200,815260 578330,815640 578330,815640 578700,816010 578700,816010 579070,816630 579070,816630 579440,817500 579440,817500 580070,818620 580070,818620 580810,820110 580810,820110 581440,822100 581440,822100 581440,824590 581440,824590 579200,827700 579200,827700 579200,827830 579200,827830 577460,829440 577460,829440 577080,831440 577080,831440 577950,833670 577950,833670 630830,833670 630830,833670 631820,831440 631820,831440 631450,829440 631450,829440 "/>
      <g>
      </g>
     </g>
     <g>
      <polygon class="fil0" points="638910,739870 636800,737260 636800,737260 634930,733530 634930,733530 633810,727180 633810,727180 637420,715860 637420,715860 643270,709270 643270,709270 646750,706530 646750,706530 647250,706160 647250,706160 561660,706160 561660,706160 564890,708640 564890,708640 568130,711630 568130,711630 571610,716110 571610,716110 574720,723820 574720,723820 572980,735640 572980,735640 570370,739380 570370,739380 569870,739870 569870,739870 568250,743980 568250,743980 569990,748210 569990,748210 570120,748330 570120,748330 570610,748830 570610,748830 571110,749700 571110,749700 571230,750940 571230,750940 570370,752560 570370,752560 638540,752560 638540,752560 637540,750820 637540,750820 637790,749450 637790,749450 638540,748460 638540,748460 638790,748330 638790,748330 640530,744230 640530,744230 640650,743980 640650,743980 "/>
      <g>
      </g>
     </g>
     <g>
      <polygon class="fil0" points="621990,690860 586780,690860 586780,690860 576960,692100 576960,692100 567380,696700 567380,696700 561780,705410 561780,705410 561660,706160 561660,706160 647250,706160 647250,706160 642020,697200 642020,697200 632570,692350 632570,692350 "/>
      <g>
      </g>
     </g>
     <g>
      <polygon class="fil0" points="566260,868880 642640,868880 642640,868880 642640,865270 642640,865270 641770,863160 641770,863160 640650,862530 640650,862530 634190,858430 634190,858430 630080,853830 630080,853830 627340,848600 627340,848600 626220,842010 626220,842010 630330,834050 630330,834050 630830,833670 630830,833670 577950,833670 577950,833670 582560,841380 582560,841380 580570,850590 580570,850590 576840,856190 576840,856190 572730,860050 572730,860050 568130,862530 568130,862530 566510,864030 566510,864030 566260,865270 566260,865270 "/>
      <g>
      </g>
     </g>
     <g>
      <polygon class="fil0" points="642640,868880 87180,868880 87180,868880 85680,870370 85680,870370 84190,871870 84190,871870 84190,986440 84190,986440 87180,986440 87180,986440 114050,986440 114050,986440 114050,930590 114050,930590 117030,927730 117030,927730 139050,927730 139050,927730 139050,901230 139050,901230 142040,898360 142040,898360 485400,898360 485400,898360 488380,901230 488380,901230 488380,927730 488380,927730 510400,927730 510400,927730 513270,930590 513270,930590 513270,986440 513270,986440 672000,986440 672000,986440 672000,871870 672000,871870 672000,868880 672000,868880 "/>
      <g>
      </g>
     </g>
     <g>
      <polygon class="fil0" points="98990,868880 539760,868880 539760,868880 539760,842510 539760,842510 536770,839520 536770,839520 101860,839520 101860,839520 98990,842510 98990,842510 "/>
      <g>
      </g>
     </g>
     <g>
      <polygon class="fil0" points="485400,898360 142040,898360 142040,898360 139050,901230 139050,901230 139050,927730 139050,927730 488380,927730 488380,927730 488380,901230 488380,901230 "/>
      <g>
      </g>
     </g>
     <g>
      <polygon class="fil0" points="488380,927730 117030,927730 117030,927730 114050,930590 114050,930590 114050,986440 114050,986440 513270,986440 513270,986440 513270,930590 513270,930590 510400,927730 510400,927730 "/>
      <g>
      </g>
     </g>
     <polygon class="fil1" points="601470,504500 331130,504500 331130,504500 331130,175320 331130,175320 601470,175320 601470,175320 "/>
     <line class="fil2 str0" x1="488380" y1="901230" x2="488380" y2= "927730" />
     <line class="fil2 str0" x1="142040" y1="898360" x2="485400" y2= "898360" />
     <line class="fil2 str0" x1="139050" y1="901230" x2="139050" y2= "927730" />
     <line class="fil2 str0" x1="485400" y1="898360" x2="488380" y2= "901230" />
     <line class="fil2 str0" x1="139050" y1="901230" x2="142040" y2= "898360" />
     <line class="fil2 str0" x1="117030" y1="927730" x2="114050" y2= "930590" />
     <line class="fil2 str0" x1="114050" y1="986440" x2="513270" y2= "986440" />
     <line class="fil2 str0" x1="510400" y1="927730" x2="513270" y2= "930590" />
     <line class="fil2 str0" x1="513270" y1="986440" x2="513270" y2= "930590" />
     <line class="fil2 str0" x1="117030" y1="927730" x2="510400" y2= "927730" />
     <line class="fil2 str0" x1="114050" y1="986440" x2="114050" y2= "930590" />
     <line class="fil2 str0" x1="101860" y1="839520" x2="98990" y2= "842510" />
     <line class="fil2 str0" x1="536770" y1="839520" x2="539760" y2= "842510" />
     <line class="fil2 str0" x1="539760" y1="842510" x2="539760" y2= "868880" />
     <line class="fil2 str0" x1="98990" y1="842510" x2="98990" y2= "868880" />
     <line class="fil2 str0" x1="101860" y1="839520" x2="536770" y2= "839520" />
     <line class="fil2 str0" x1="523590" y1="132770" x2="525080" y2= "131280" />
     <line class="fil2 str0" x1="113670" y1="839520" x2="113670" y2= "19570" />
     <line class="fil2 str0" x1="525080" y1="548540" x2="525080" y2= "839520" />
     <line class="fil2 str0" x1="525080" y1="19570" x2="525080" y2= "131280" />
     <line class="fil2 str0" x1="525080" y1="548540" x2="523590" y2= "547170" />
     <line class="fil2 str0" x1="115170" y1="18200" x2="113670" y2= "19570" />
     <line class="fil2 str0" x1="523590" y1="18200" x2="522090" y2= "16700" />
     <line class="fil2 str0" x1="525080" y1="19570" x2="523590" y2= "18200" />
     <line class="fil2 str0" x1="523590" y1="547170" x2="522090" y2= "545680" />
     <line class="fil2 str0" x1="116530" y1="16700" x2="115170" y2= "18200" />
     <line class="fil2 str0" x1="116530" y1="16700" x2="522090" y2= "16700" />
     <line class="fil2 str0" x1="522090" y1="134260" x2="523590" y2= "132770" />
     <line class="fil2 str0" x1="672000" y1="868880" x2="672000" y2= "871870" />
     <line class="fil2 str0" x1="87180" y1="868880" x2="85680" y2= "870370" />
     <line class="fil2 str0" x1="87180" y1="868880" x2="672000" y2= "868880" />
     <line class="fil2 str0" x1="87180" y1="986440" x2="84190" y2= "986440" />
     <line class="fil2 str0" x1="672000" y1="986440" x2="672000" y2= "871870" />
     <line class="fil2 str0" x1="84190" y1="871870" x2="85680" y2= "870370" />
     <line class="fil2 str0" x1="84190" y1="986440" x2="84190" y2= "871870" />
     <line class="fil2 str0" x1="624980" y1="151810" x2="307620" y2= "151810" />
     <line class="fil2 str0" x1="307620" y1="528010" x2="624980" y2= "528010" />
     <line class="fil2 str0" x1="289960" y1="134260" x2="642640" y2= "134260" />
     <line class="fil2 str0" x1="289960" y1="545680" x2="289960" y2= "134260" />
     <line class="fil2 str0" x1="642640" y1="134260" x2="642640" y2= "545680" />
     <line class="fil2 str0" x1="642640" y1="545680" x2="289960" y2= "545680" />
     <line class="fil2 str0" x1="624980" y1="528010" x2="624980" y2= "151810" />
     <line class="fil2 str0" x1="307620" y1="151810" x2="307620" y2= "528010" />
     <path class="fil2 str0" d="M568130 862530c-1120,380 -1870,1500 -1870,2740"/>
     <path class="fil2 str0" d="M642640 865270c0,-1240 -740,-2360 -1990,-2740"/>
     <path class="fil2 str0" d="M638790 748330c1120,-1120 1860,-2730 1860,-4350"/>
     <path class="fil2 str0" d="M621990 690860c1500,0 2990,0 4360,250 1490,120 2860,370 4230,740 1620,380 3110,750 4480,1370 1250,500 2360,1000 3480,1620 870,500 1620,1000 2370,1500 620,490 1240,860 1740,1490 500,500 990,1000 1490,1620 380,370 750,870 1000,1370 370,370 620,870 870,1360 250,500 370,1000 620,1500 120,500 370,1000 370,1620 120,250 250,620 250,870"/>
     <path class="fil2 str0" d="M629710 827830c2360,1490 1990,4600 1120,5850"/>
     <line class="fil2 str0" x1="570370" y1="752560" x2="638540" y2= "752560" />
     <path class="fil2 str0" d="M569870 739870c-1000,1120 -1620,2610 -1620,4110"/>
     <line class="fil2 str0" x1="586780" y1="690860" x2="621990" y2= "690860" />
     <line class="fil2 str0" x1="642640" y1="868880" x2="642640" y2= "865270" />
     <path class="fil2 str0" d="M568250 743980c0,1620 620,3230 1870,4350"/>
     <line class="fil2 str0" x1="566260" y1="868880" x2="566260" y2= "865270" />
     <path class="fil2 str0" d="M577950 833670c-1610,-2360 0,-5100 1250,-5850"/>
     <path class="fil2 str0" d="M640650 743980c0,-1500 -620,-2990 -1740,-4110"/>
     <path class="fil2 str0" d="M630830 833670c-10950,8210 -120,25260 9820,28860"/>
     <path class="fil2 str0" d="M568130 862530c9950,-3600 20900,-20650 9820,-28860"/>
     <line class="fil2 str0" x1="621990" y1="690860" x2="586780" y2= "690860" />
     <line class="fil2 str0" x1="577950" y1="833670" x2="630830" y2= "833670" />
     <line class="fil2 str0" x1="561660" y1="706160" x2="647250" y2= "706160" />
     <path class="fil2 str0" d="M561660 706160c0,-620 120,-1120 370,-1740 120,-500 370,-1120 500,-1620 250,-500 500,-1000 870,-1500 250,-490 500,-990 870,-1360 370,-500 620,-870 990,-1250 380,-500 870,-870 1250,-1250 500,-490 1250,-990 1870,-1360 620,-500 1240,-870 1860,-1250 870,-500 1740,-870 2620,-1250 990,-370 1990,-740 2980,-1120 1370,-370 2620,-740 3990,-990 1360,-250 2860,-500 4350,-620 870,0 2360,0 2610,0"/>
     <line class="fil2 str0" x1="87180" y1="986440" x2="114050" y2= "986440" />
     <line class="fil2 str0" x1="513270" y1="986440" x2="672000" y2= "986440" />
    </g>
   </g>
  </g>
 </g>
</svg>
