<?xml version="1.0" encoding="UTF-8"?>
<!DOCTYPE svg PUBLIC "-//W3C//DTD SVG 1.1//EN" "http://www.w3.org/Graphics/SVG/1.1/DTD/svg11.dtd">
<!-- Creator: Corel DESIGNER -->
<svg xmlns="http://www.w3.org/2000/svg" xml:space="preserve" width="750px" height="1000px" version="1.1" style="shape-rendering:geometricPrecision; text-rendering:geometricPrecision; image-rendering:optimizeQuality; fill-rule:evenodd; clip-rule:evenodd"
viewBox="0 0 750000 1000000"
 xmlns:xlink="http://www.w3.org/1999/xlink"
 xmlns:xodm="http://www.corel.com/coreldraw/odm/2003">
 <defs>
  <style type="text/css">
   <![CDATA[
    .str0 {stroke:white;stroke-width:2810;stroke-linejoin:bevel;stroke-miterlimit:22.9256}
    .fil1 {fill:none}
    .fil0 {fill:black}
   ]]>
  </style>
 </defs>
 <g id="Слой_x0020_1">
  <metadata id="CorelCorpID_0Corel-Layer"/>
  <g id="_2999657434320">
   <g id="_2595748473264">
    <g>
     <polygon class="fil0" points="652360,827380 682770,790860 682770,790860 706910,743480 706910,743480 717460,712920 717460,712920 717920,711240 717920,711240 718990,707720 718990,707720 720980,700850 720980,700850 723730,688470 723730,688470 726020,669980 726020,669980 726020,668600 726020,668600 726020,667840 726020,667840 726020,666000 726020,666000 726020,662490 726020,662490 725560,655610 725560,655610 723730,641700 723730,641700 720820,627500 720820,627500 720520,626580 720520,626580 720060,624900 720060,624900 719300,621380 719300,621380 717620,615120 717620,615120 716700,611910 716700,611910 716240,610230 716240,610230 715320,606560 715320,606560 714710,604420 714710,604420 713950,601210 713950,601210 712720,596480 712720,596480 711040,589290 711040,589290 709670,582870 709670,582870 709360,581800 709360,581800 709060,579820 709060,579820 708290,575840 708290,575840 707070,567900 707070,567900 705540,551700 705540,551700 705390,527860 705390,527860 705390,526020 705390,526020 705700,522510 705700,522510 706150,515330 706150,515330 707830,501270 707830,501270 712570,473150 712570,473150 715930,457110 715930,457110 717770,448850 717770,448850 720210,438460 720210,438460 722350,428530 722350,428530 724180,419820 724180,419820 726480,408660 726480,408660 726930,405910 726930,405910 727540,403010 727540,403010 728010,400260 728010,400260 678340,402400 678340,402400 622870,392920 622870,392920 617980,391550 617980,391550 616610,391090 616610,391090 613700,390320 613700,390320 608050,388640 608050,388640 596740,384670 596740,384670 583750,379020 583750,379020 583140,378710 583140,378710 581920,378100 581920,378100 579320,376720 579320,376720 574430,373970 574430,373970 565100,368470 565100,368470 560520,365420 560520,365420 558220,364040 558220,364040 555480,362210 555480,362210 553340,360830 553340,360830 551500,359610 551500,359610 548750,357930 548750,357930 544630,355330 544630,355330 538360,351660 538360,351660 528580,346620 528580,346620 524610,344790 524610,344790 523840,344480 523840,344480 522470,343870 522470,343870 519570,342800 519570,342800 513610,340820 513610,340820 501380,337910 501380,337910 481970,336230 481970,336230 480290,336230 480290,336230 477080,336230 477080,336230 470820,336840 470820,336840 458130,338830 458130,338830 433230,346310 433230,346310 405110,359460 405110,359460 388140,369390 388140,369390 375460,377490 375460,377490 359880,367710 359880,367710 345050,359150 345050,359150 326870,350140 326870,350140 301500,340970 301500,340970 267420,336230 267420,336230 265740,336230 265740,336230 262530,336380 262530,336380 256110,336840 256110,336840 243430,339130 243430,339130 225550,345090 225550,345090 224780,345400 224780,345400 223410,346010 223410,346010 220660,347380 220660,347380 215160,350290 215160,350290 204460,356550 204460,356550 199110,359760 199110,359760 196520,361450 196520,361450 195290,362360 195290,362360 192850,363890 192850,363890 190400,365570 190400,365570 187960,366940 187960,366940 184600,369240 184600,369240 179250,372450 179250,372450 171300,376880 171300,376880 166410,379320 166410,379320 165800,379630 165800,379630 164580,380240 164580,380240 161980,381460 161980,381460 156780,383600 156780,383600 146080,387580 146080,387580 131410,392000 131410,392000 130040,392310 130040,392310 127130,393080 127130,393080 121490,394600 121490,394600 109870,397200 109870,397200 86490,401020 86490,401020 39270,402240 39270,402240 22920,400260 22920,400260 23370,403010 23370,403010 23990,405910 23990,405910 24450,408660 24450,408660 28270,427310 28270,427310 30400,436630 30400,436630 31480,441520 31480,441520 34230,453900 34230,453900 35750,460470 35750,460470 37740,470400 37740,470400 40640,485220 40640,485220 43850,507540 43850,507540 45690,529540 45690,529540 45690,531370 45690,531370 45690,534890 45690,534890 45690,542070 45690,542070 45070,556280 45070,556280 41100,583790 41100,583790 40950,584860 40950,584860 40490,586850 40490,586850 39580,590670 39580,590670 37740,598610 37740,598610 36060,604570 36060,604570 35290,607630 35290,607630 34840,609310 34840,609310 33920,612980 33920,612980 33310,615270 33310,615270 32390,618480 32390,618480 31170,623370 31170,623370 29950,628260 29950,628260 29800,629180 29800,629180 29340,630860 29340,630860 28570,634370 28570,634370 27200,641400 27200,641400 25360,655460 25360,655460 24900,669520 24900,669520 24900,670430 24900,670430 25050,672110 25050,672110 25360,675630 25360,675630 26130,682510 26130,682510 28880,696260 28880,696260 32700,710630 32700,710630 33920,714750 33920,714750 34530,716430 34530,716430 35600,719790 35600,719790 37890,726670 37890,726670 42630,740120 42630,740120 54090,766250 54090,766250 85420,813770 85420,813770 98560,827380 98560,827380 110480,827380 110480,827380 131720,827380 131720,827380 619200,827380 619200,827380 640440,827380 640440,827380 "/>
     <g>
     </g>
    </g>
    <g>
     <polygon class="fil0" points="131720,989820 619200,989820 619200,989820 619200,827380 619200,827380 131720,827380 131720,827380 "/>
     <g>
     </g>
    </g>
    <line class="fil1 str0" x1="619200" y1="989820" x2="619200" y2= "827380" />
    <line class="fil1 str0" x1="131720" y1="989820" x2="619200" y2= "989820" />
    <line class="fil1 str0" x1="131720" y1="989820" x2="131720" y2= "827380" />
    <line class="fil1 str0" x1="131720" y1="827380" x2="619200" y2= "827380" />
    <line class="fil1 str0" x1="619200" y1="827380" x2="640440" y2= "827380" />
    <line class="fil1 str0" x1="110480" y1="827380" x2="131720" y2= "827380" />
    <line class="fil1 str0" x1="652360" y1="827380" x2="640440" y2= "827380" />
    <line class="fil1 str0" x1="110480" y1="827380" x2="98560" y2= "827380" />
    <path class="fil1 str0" d="M24450 408660c7640,39730 19710,79620 21090,120420 760,18190 -770,36520 -4280,54250 -3060,14980 -7650,29650 -11160,44620 -3210,13450 -5650,27360 -5200,41110 460,14970 4290,29790 8710,44320 12990,42630 31480,82360 64950,114000"/>
    <path class="fil1 str0" d="M652360 827380c33470,-31640 51960,-71370 64950,-114000 4430,-14530 8250,-29350 8710,-44320 460,-13750 -1990,-27660 -5200,-41110 -3520,-14970 -8100,-29640 -11150,-44620 -3520,-17730 -5040,-36060 -4430,-54250 1530,-40800 13600,-80690 21240,-120420"/>
    <path class="fil1 str0" d="M22920 400260c450,2750 1070,5650 1530,8400"/>
    <path class="fil1 str0" d="M728010 400260c-37290,6110 -73970,1370 -109570,-8560 -11770,-3360 -23380,-7190 -34390,-12530 -10080,-4900 -19560,-11160 -29190,-17420 -9620,-6110 -19250,-12230 -29790,-16810 -13140,-5660 -27660,-8710 -42030,-8710 -38810,-310 -76870,21240 -107580,41260"/>
    <path class="fil1 str0" d="M375460 377490c-30720,-20020 -68770,-41570 -107580,-41260 -14370,0 -28890,3050 -42030,8710 -10540,4580 -20170,10700 -29790,16810 -9630,6260 -19100,12530 -29190,17420 -11010,5340 -22620,9170 -34390,12530 -35600,9930 -72280,14670 -109570,8560"/>
    <path class="fil1 str0" d="M726480 408660c450,-2750 1060,-5650 1530,-8400"/>
   </g>
  </g>
 </g>
</svg>
