<?xml version="1.0" encoding="iso-8859-1"?>
<!-- Uploaded to: SVG Repo, www.svgrepo.com, Generator: SVG Repo Mixer Tools -->
<svg fill="#000000" height="800px" width="800px" version="1.1" id="Layer_1" xmlns="http://www.w3.org/2000/svg" xmlns:xlink="http://www.w3.org/1999/xlink" 
	 viewBox="0 0 496 496" xml:space="preserve">
<g>
	<g>
		<g>
			<path d="M421.232,0H250.768L248,6.32L245.232,0H74.768L15.736,134.944L73.168,496h173.656l1.176-7.368l1.168,7.368h173.656
				l57.44-361.056L421.232,0z M233.168,480H216v-16h-16v16h-16v-16h-16v16h-16v-16h-16v16h-16v-16h-16v16H86.832l-54.56-342.944
				L85.232,16H104v16h16V16h16v16h16V16h16v16h16V16h16v16h16V16h18.768l52.968,121.056L233.168,480z M381.176,144.52l16.848-19.256
				l-12.048-10.528l-2.296,2.624c0.2-1.768,0.32-3.544,0.32-5.36c0-26.472-21.528-48-48-48c-22.632,0-41.6,15.76-46.64,36.864
				L274.968,67.96L284.944,48h102.112l44.656,89.312L416,242.056V184C416,163.72,400.768,147.088,381.176,144.52z M288,288v144h96
				V288h25.112l-24,160h-98.224l-15.736-104.928L279.92,288H288z M282.464,272L288,237.192V272H282.464z M336,144
				c-17.648,0-32-14.352-32-32s14.352-32,32-32s32,14.352,32,32S353.648,144,336,144z M346.368,160l-10.216,11.68L326.416,160
				H346.368z M305.584,160l30.272,36.32L367.632,160H376c13.232,0,24,10.768,24,24v88h-16v-88h-16v64h-64v-64h-7.536l3.816-24
				H305.584z M328,280v136h-24V264h64v152h-24V280H328z M409.168,480H262.832l-6.728-42.28l6.728-42.28l10.28,68.56h125.784
				l49.4-329.312L396.944,32H275.056l-8.44,16.88l-9.88-22.592L261.232,16H410.76l52.968,121.056L409.168,480z"/>
			<path d="M184,136V80h-48v56H72v48h64v232h48V184h64v-48H184z M232,168h-64v232h-16V168H88v-16h64V96h16v56h64V168z"/>
		</g>
	</g>
</g>
</svg>